<svg width="180" height="86" viewBox="0 0 259 86" fill="none" xmlns="http://www.w3.org/2000/svg">
<g clip-path="url(#clip0_1_301)">
<path d="M258.72 42.72C258.72 51.1692 256.214 59.4287 251.52 66.454C246.826 73.4792 240.154 78.9548 232.348 82.1881C224.542 85.4215 215.953 86.2675 207.666 84.6191C199.379 82.9708 191.767 78.9021 185.792 72.9276C179.818 66.9531 175.749 59.3411 174.101 51.0543C172.452 42.7674 173.298 34.1778 176.532 26.3718C179.765 18.5657 185.241 11.8937 192.266 7.19962C199.291 2.50548 207.551 0 216 0C227.33 0 238.196 4.50084 246.208 12.5124C254.219 20.524 258.72 31.3899 258.72 42.72Z" fill="#E1261D"/>
<path d="M195.64 30.43V37.66H207.37V43.08H195.64V55.25H188.94V25.01H209.4L208.69 30.43H195.64Z" fill="white"/>
<path d="M226.2 55.7C218.83 55.7 212.71 50.89 212.71 42.29V37.97C212.71 29.37 218.83 24.57 226.2 24.57C233.57 24.57 239.69 29.37 239.69 37.97V42.29C239.69 50.89 233.56 55.7 226.2 55.7ZM226.2 29.99C222.58 29.99 219.85 32.37 219.85 36.99V43.25C219.85 47.88 222.58 50.25 226.2 50.25C229.82 50.25 232.54 47.87 232.54 43.25V36.99C232.54 32.36 229.81 29.99 226.2 29.99" fill="white"/>
<path d="M226.34 60.39C218.29 60.39 211.34 55.9 209.51 47.75H202.51C205.51 55.06 215.06 60.4 226.35 60.4C237.64 60.4 247.18 55.06 250.2 47.75H243.2C241.33 55.9 234.42 60.39 226.36 60.39" fill="white"/>
<path d="M220.34 71.77C220.03 72.2369 219.593 72.6048 219.08 72.83C218.481 73.0919 217.833 73.2215 217.18 73.21H216.57C215.917 73.2215 215.269 73.0919 214.67 72.83C214.157 72.6048 213.72 72.2369 213.41 71.77C213.105 71.2894 212.948 70.7293 212.96 70.16V63.9H215.78V70.13C215.777 70.2661 215.805 70.4011 215.86 70.5256C215.915 70.65 215.997 70.7607 216.1 70.85C216.314 71.0299 216.585 71.1285 216.865 71.1285C217.145 71.1285 217.416 71.0299 217.63 70.85C217.733 70.7607 217.815 70.65 217.87 70.5256C217.925 70.4011 217.953 70.2661 217.95 70.13V63.91H220.76V70.13C220.787 70.7063 220.641 71.2775 220.34 71.77V71.77Z" fill="white"/>
<path d="M228.48 64.21C228.837 64.3979 229.137 64.6775 229.35 65.02C229.567 65.3562 229.679 65.7498 229.67 66.15C229.707 66.6602 229.562 67.1669 229.26 67.58C228.965 67.9224 228.575 68.1695 228.14 68.29V68.34C228.669 68.4264 229.145 68.7117 229.47 69.1374C229.795 69.5631 229.945 70.0971 229.89 70.63C229.889 71.063 229.771 71.4878 229.55 71.86C229.321 72.231 229.001 72.5374 228.62 72.75C228.233 72.9676 227.794 73.0781 227.35 73.07H222.24V63.9H227.24C227.674 63.8894 228.102 63.9965 228.48 64.21V64.21ZM224.82 67.42H226.36C226.447 67.4226 226.534 67.4071 226.615 67.3744C226.696 67.3417 226.769 67.2925 226.83 67.23C226.894 67.1677 226.945 67.093 226.979 67.0105C227.014 66.928 227.031 66.8394 227.03 66.75V66.52C227.03 66.4322 227.012 66.3453 226.978 66.2645C226.944 66.1838 226.893 66.1108 226.83 66.05C226.769 65.9875 226.696 65.9384 226.615 65.9056C226.534 65.8729 226.447 65.8574 226.36 65.86H224.82V67.42ZM224.82 70.95H226.57C226.657 70.9514 226.744 70.9354 226.824 70.9027C226.905 70.8701 226.978 70.8216 227.04 70.76C227.104 70.6977 227.155 70.623 227.189 70.5405C227.224 70.458 227.241 70.3694 227.24 70.28V70.04C227.241 69.9506 227.224 69.862 227.189 69.7795C227.155 69.697 227.104 69.6223 227.04 69.56C226.978 69.4985 226.905 69.4499 226.824 69.4173C226.744 69.3847 226.657 69.3686 226.57 69.37H224.87L224.82 70.95Z" fill="white"/>
<path d="M239.79 73.07H236.88L236.33 71.44H233.42L232.88 73.07H230.18L233.24 63.9H236.73L239.79 73.07ZM234.85 66.72L234.06 69.5H235.69L234.91 66.72H234.85Z" fill="white"/>
<path d="M0 40.13V40.02C0 31.02 6.43 24.24 15.45 24.24C26.12 24.24 31.07 31.66 31.07 40.79C31.07 41.45 31.07 42.22 31.07 42.88H11.71C12.071 44.0851 12.826 45.1343 13.854 45.8595C14.882 46.5848 16.1236 46.9441 17.38 46.88C19.63 46.88 21.5 45.88 23.48 43.8L30.19 49.13C28.6135 51.2528 26.5422 52.9583 24.1562 54.0981C21.7703 55.2379 19.142 55.7775 16.5 55.67C6.65 55.7 0 49.49 0 40.13ZM19.69 37.38C19.41 34.52 17.69 32.87 15.51 32.87C13.33 32.87 11.93 34.63 11.51 37.38H19.69Z" fill="#E1261D"/>
<path d="M33.82 24.96H46.31V29.13C47.3545 27.6572 48.7282 26.4483 50.3218 25.5995C51.9154 24.7506 53.685 24.2851 55.49 24.24C61.82 24.24 65.78 28.42 65.78 35.18V54.98H53.29V39.21C53.29 36.62 51.75 35.14 49.88 35.14C48.01 35.14 46.31 36.62 46.31 39.21V54.99H33.82V24.96Z" fill="#E1261D"/>
<path d="M68.42 40.19V40.13C68.42 30.61 74.14 24.29 81.23 24.29C82.9455 24.2413 84.6493 24.5875 86.2098 25.3018C87.7703 26.0162 89.1458 27.0796 90.23 28.41V14.84H102.71V54.99H90.25V51.3C88.25 53.5 85.91 55.7 81.34 55.7C74.08 55.7 68.42 49.38 68.42 40.19ZM90.57 40.03V39.92C90.57 38.5939 90.0432 37.3221 89.1055 36.3845C88.1678 35.4468 86.8961 34.92 85.57 34.92C84.2439 34.92 82.9721 35.4468 82.0344 36.3845C81.0968 37.3221 80.57 38.5939 80.57 39.92V40.03C80.57 41.3561 81.0968 42.6278 82.0344 43.5655C82.9721 44.5032 84.2439 45.03 85.57 45.03C86.8961 45.03 88.1678 44.5032 89.1055 43.5655C90.0432 42.6278 90.57 41.3561 90.57 40.03V40.03Z" fill="#E1261D"/>
<path d="M105.57 40.13V40.01C105.57 31.55 112.57 24.29 122.51 24.29C132.45 24.29 139.34 31.44 139.34 39.9V40.01C139.34 48.48 132.34 55.74 122.4 55.74C112.46 55.74 105.57 48.55 105.57 40.13ZM127.35 40.13V40.01C127.377 39.3346 127.27 38.6605 127.035 38.0266C126.801 37.3926 126.443 36.8113 125.983 36.316C125.523 35.8207 124.97 35.4212 124.355 35.1404C123.74 34.8597 123.076 34.7032 122.4 34.68C121.738 34.7005 121.087 34.8524 120.484 35.1267C119.881 35.401 119.339 35.7924 118.889 36.278C118.438 36.7637 118.089 37.3339 117.861 37.9557C117.633 38.5775 117.531 39.2384 117.56 39.9V40.01C117.532 40.6863 117.638 41.3614 117.872 41.9965C118.106 42.6316 118.463 43.2141 118.923 43.7105C119.383 44.2069 119.937 44.6073 120.553 44.8887C121.168 45.17 121.834 45.3268 122.51 45.35C123.169 45.3256 123.817 45.1709 124.417 44.8949C125.016 44.6188 125.555 44.2269 126.002 43.7416C126.449 43.2564 126.796 42.6874 127.022 42.0676C127.248 41.4477 127.349 40.7892 127.32 40.13H127.35Z" fill="#E1261D"/>
</g>
<defs>
<clipPath id="clip0_1_301">
<rect width="258.72" height="85.44" fill="white"/>
</clipPath>
</defs>
</svg>
