<svg width="120" height="99" viewBox="0 0 146 99" fill="none" xmlns="http://www.w3.org/2000/svg">
<g clip-path="url(#clip0_1_302)">
<path d="M31.11 45.87H20.11V42.87C18.9785 44.1115 17.5967 45.0992 16.0558 45.768C14.5148 46.4368 12.8497 46.7715 11.17 46.75C4.47 46.75 0 42.1 0 34.57V16.17H11.05V32.17C11.05 35 12.7 36.88 15.23 36.88C18.17 36.88 20.11 34.7 20.11 30.53V16.17H31.11V45.87Z" fill="#E1261D"/>
<path d="M48.8 7.46001C48.7358 9.05473 48.0572 10.5628 46.9062 11.6684C45.7551 12.774 44.221 13.3915 42.625 13.3915C41.029 13.3915 39.4949 12.774 38.3439 11.6684C37.1929 10.5628 36.5142 9.05473 36.45 7.46001C36.5142 5.8653 37.1929 4.35725 38.3439 3.25163C39.4949 2.14601 41.029 1.52856 42.625 1.52856C44.221 1.52856 45.7551 2.14601 46.9062 3.25163C48.0572 4.35725 48.7358 5.8653 48.8 7.46001V7.46001ZM37.16 45.87V16.17H48.16V45.87H37.16Z" fill="#E1261D"/>
<path d="M88.26 31.05C88.26 40.4 82.09 46.75 73.91 46.75C72.303 46.8129 70.7004 46.5424 69.2031 45.9555C67.7058 45.3686 66.3462 44.4781 65.21 43.34V45.87H54.21V0.580017H65.21V18.7C66.3448 17.5599 67.7041 16.6681 69.2018 16.0811C70.6994 15.4941 72.3027 15.2247 73.91 15.29C82.09 15.29 88.26 21.64 88.26 31.05ZM77.26 31.05C77.26 27.28 74.91 24.46 71.26 24.46C67.91 24.46 65.21 27.28 65.21 31.05C65.1711 31.8773 65.2976 32.704 65.582 33.4818C65.8664 34.2596 66.303 34.9729 66.8663 35.58C67.4297 36.1871 68.1084 36.6758 68.8628 37.0175C69.6172 37.3592 70.4321 37.547 71.26 37.57C74.93 37.57 77.26 34.75 77.26 31.05Z" fill="#E1261D"/>
<path d="M120.54 27.58V45.87H109.93V43.81C107.497 45.8042 104.424 46.8488 101.28 46.75C94.75 46.75 90.46 42.87 90.46 37.04C90.46 31.21 95.05 27.46 103.4 27.46H109.93V26.69C109.95 26.2518 109.878 25.8142 109.719 25.4053C109.56 24.9964 109.318 24.6252 109.007 24.3155C108.697 24.0058 108.325 23.7643 107.915 23.6067C107.506 23.449 107.068 23.3786 106.63 23.4C104.46 23.4 103.22 24.34 102.81 26.46L92.4 24.34C93.87 18.58 98.99 15.29 106.46 15.29C115.25 15.29 120.54 19.7 120.54 27.58ZM109.93 34.52V33.52H105.52C103.4 33.52 101.99 34.58 101.99 36.17C101.99 37.76 103.4 38.82 105.22 38.82C107.6 38.87 109.93 37.34 109.93 34.52Z" fill="#E1261D"/>
<path d="M145.47 16.17V24.75H138.24V45.87H127.18V24.75H123.24V16.17H127.18V11.58C127.18 4.52002 132.12 1.43591e-05 139.35 1.43591e-05C141.552 -0.00901133 143.733 0.429884 145.76 1.29002L143.59 9.58002C142.923 9.3665 142.23 9.24866 141.53 9.23002C141.102 9.18802 140.67 9.2385 140.263 9.37806C139.857 9.51761 139.485 9.74297 139.173 10.0389C138.861 10.3347 138.616 10.6942 138.455 11.093C138.294 11.4918 138.221 11.9204 138.24 12.35V16.17H145.47Z" fill="#E1261D"/>
<path d="M8.77997 64.55C8.77997 66.67 7.49997 68.1 5.54997 68.1C5.09459 68.1063 4.64298 68.0165 4.22463 67.8365C3.80627 67.6566 3.43055 67.3904 3.122 67.0554C2.81344 66.7204 2.57897 66.3242 2.43389 65.8925C2.2888 65.4608 2.23635 65.0033 2.27997 64.55V60.18H3.18997V64.55C3.14635 64.883 3.17428 65.2214 3.27191 65.5427C3.36954 65.864 3.53462 66.1608 3.75611 66.4132C3.97761 66.6656 4.25041 66.8678 4.55631 67.0064C4.86221 67.1449 5.19416 67.2166 5.52997 67.2166C5.86578 67.2166 6.19773 67.1449 6.50363 67.0064C6.80953 66.8678 7.08234 66.6656 7.30383 66.4132C7.52533 66.1608 7.6904 65.864 7.78803 65.5427C7.88566 65.2214 7.9136 64.883 7.86997 64.55V60.18H8.77997V64.55Z" fill="#E1261D"/>
<path d="M16.02 64.52V67.97H15.14V64.71C15.1652 64.4857 15.143 64.2585 15.0747 64.0433C15.0065 63.828 14.8937 63.6296 14.7438 63.4608C14.5938 63.292 14.4101 63.1566 14.2044 63.0634C13.9987 62.9703 13.7758 62.9214 13.55 62.92C12.36 62.92 11.55 63.73 11.55 65.22V67.97H10.67V62.25H11.55V63.25C11.7842 62.8962 12.1066 62.6096 12.4854 62.4184C12.8642 62.2273 13.2863 62.1382 13.71 62.16C14.0208 62.1483 14.3305 62.2018 14.6194 62.3169C14.9083 62.432 15.17 62.6063 15.3875 62.8286C15.6051 63.0508 15.7737 63.3161 15.8826 63.6074C15.9915 63.8987 16.0383 64.2096 16.02 64.52Z" fill="#E1261D"/>
<path d="M19.11 60.5C19.1101 60.5801 19.0939 60.6593 19.0624 60.7329C19.0309 60.8065 18.9847 60.873 18.9267 60.9282C18.8687 60.9834 18.8001 61.0262 18.725 61.054C18.6499 61.0818 18.57 61.0941 18.49 61.09C18.4113 61.0927 18.3329 61.0794 18.2595 61.0509C18.1862 61.0223 18.1194 60.9791 18.0632 60.9239C18.0071 60.8687 17.9628 60.8026 17.933 60.7298C17.9032 60.6569 17.8886 60.5787 17.89 60.5C17.8926 60.3426 17.957 60.1925 18.0692 60.0822C18.1815 59.9718 18.3326 59.91 18.49 59.91C18.6501 59.9073 18.8048 59.9676 18.9208 60.078C19.0368 60.1884 19.1048 60.34 19.11 60.5V60.5ZM18.05 67.97V62.25H18.93V67.97H18.05Z" fill="#E1261D"/>
<path d="M26.6 67.97H25.72V66.97C25.4609 67.3261 25.1185 67.6135 24.7229 67.807C24.3272 68.0004 23.8902 68.0942 23.45 68.08C22.6544 68.08 21.8913 67.7639 21.3287 67.2013C20.7661 66.6387 20.45 65.8757 20.45 65.08C20.45 64.2844 20.7661 63.5213 21.3287 62.9587C21.8913 62.3961 22.6544 62.08 23.45 62.08C23.8895 62.0639 24.3262 62.1557 24.7219 62.3474C25.1177 62.5392 25.4604 62.8251 25.72 63.18V59.01H26.6V67.97ZM25.72 65.11C25.7294 64.8235 25.6813 64.538 25.5787 64.2704C25.4761 64.0027 25.321 63.7583 25.1226 63.5514C24.9241 63.3446 24.6863 63.1795 24.4231 63.0659C24.1599 62.9523 23.8767 62.8925 23.59 62.89C23.0012 62.89 22.4366 63.1239 22.0202 63.5402C21.6039 63.9566 21.37 64.5212 21.37 65.11C21.37 65.6988 21.6039 66.2635 22.0202 66.6798C22.4366 67.0961 23.0012 67.33 23.59 67.33C23.878 67.3262 24.1623 67.2649 24.4262 67.1496C24.6902 67.0343 24.9283 66.8673 25.1268 66.6586C25.3253 66.4499 25.48 66.2036 25.5819 65.9342C25.6837 65.6649 25.7307 65.3778 25.72 65.09V65.11Z" fill="#E1261D"/>
<path d="M33.24 64.23V67.97H32.38V67.1C32.1271 67.4258 31.8001 67.6866 31.4262 67.8605C31.0522 68.0344 30.6421 68.1166 30.23 68.1C29.9769 68.1336 29.7196 68.114 29.4746 68.0422C29.2296 67.9705 29.0024 67.8483 28.8074 67.6835C28.6125 67.5187 28.4541 67.3149 28.3426 67.0852C28.2311 66.8556 28.1689 66.6051 28.16 66.35C28.16 65.35 28.96 64.56 30.45 64.56H32.38V64.29C32.3922 64.0978 32.3628 63.9052 32.2938 63.7253C32.2248 63.5455 32.1179 63.3827 31.9802 63.2479C31.8426 63.1131 31.6776 63.0096 31.4963 62.9444C31.3151 62.8792 31.1219 62.8538 30.93 62.87C30.5689 62.8245 30.2039 62.9165 29.9075 63.1277C29.6111 63.3389 29.405 63.6539 29.33 64.01L28.48 63.83C28.6051 63.3005 28.9163 62.8335 29.3568 62.5141C29.7973 62.1948 30.3378 62.0443 30.88 62.09C31.1808 62.0489 31.487 62.0742 31.777 62.164C32.067 62.2538 32.3338 62.4061 32.5587 62.61C32.7836 62.814 32.9612 63.0647 33.0788 63.3445C33.1965 63.6244 33.2515 63.9266 33.24 64.23V64.23ZM32.38 65.56V65.26H30.44C29.5 65.26 29 65.71 29 66.33C29 66.95 29.54 67.33 30.36 67.33C30.8619 67.3602 31.3555 67.1914 31.7336 66.86C32.1118 66.5286 32.3441 66.0615 32.38 65.56V65.56Z" fill="#E1261D"/>
<path d="M40.52 67.97H39.64V66.97C39.3809 67.3261 39.0385 67.6135 38.6429 67.807C38.2472 68.0004 37.8102 68.0942 37.37 68.08C36.5743 68.08 35.8113 67.7639 35.2487 67.2013C34.6861 66.6387 34.37 65.8757 34.37 65.08C34.37 64.2844 34.6861 63.5213 35.2487 62.9587C35.8113 62.3961 36.5743 62.08 37.37 62.08C37.8095 62.0639 38.2462 62.1557 38.6419 62.3474C39.0377 62.5392 39.3804 62.8251 39.64 63.18V59.01H40.52V67.97ZM39.64 65.11C39.6494 64.8227 39.601 64.5364 39.4978 64.2681C39.3946 63.9997 39.2386 63.7548 39.039 63.5479C38.8395 63.3409 38.6005 63.176 38.3362 63.063C38.0718 62.95 37.7875 62.8912 37.5 62.89C36.9112 62.89 36.3465 63.1239 35.9302 63.5402C35.5139 63.9566 35.28 64.5212 35.28 65.11C35.28 65.6988 35.5139 66.2635 35.9302 66.6798C36.3465 67.0961 36.9112 67.33 37.5 67.33C37.7888 67.3275 38.0742 67.2672 38.3393 67.1525C38.6044 67.0377 38.8438 66.871 39.0433 66.6622C39.2428 66.4533 39.3984 66.2066 39.5009 65.9366C39.6034 65.6665 39.6507 65.3787 39.64 65.09V65.11Z" fill="#E1261D"/>
<path d="M51.04 67.97H50.16V66.97C49.9009 67.3261 49.5585 67.6135 49.1629 67.807C48.7672 68.0004 48.3302 68.0942 47.89 68.08C47.0944 68.08 46.3313 67.7639 45.7687 67.2013C45.2061 66.6387 44.89 65.8757 44.89 65.08C44.89 64.2844 45.2061 63.5213 45.7687 62.9587C46.3313 62.3961 47.0944 62.08 47.89 62.08C48.3295 62.0639 48.7662 62.1557 49.1619 62.3474C49.5577 62.5392 49.9004 62.8251 50.16 63.18V59.01H51.04V67.97ZM50.16 65.11C50.1694 64.8235 50.1213 64.538 50.0187 64.2704C49.9161 64.0027 49.761 63.7583 49.5626 63.5514C49.3641 63.3446 49.1263 63.1795 48.8631 63.0659C48.5999 62.9523 48.3167 62.8925 48.03 62.89C47.4412 62.89 46.8766 63.1239 46.4602 63.5402C46.0439 63.9566 45.81 64.5212 45.81 65.11C45.81 65.6988 46.0439 66.2635 46.4602 66.6798C46.8766 67.0961 47.4412 67.33 48.03 67.33C48.318 67.3262 48.6023 67.2649 48.8662 67.1496C49.1301 67.0343 49.3683 66.8673 49.5668 66.6586C49.7653 66.4499 49.92 66.2036 50.0219 65.9342C50.1237 65.6649 50.1707 65.3778 50.16 65.09V65.11Z" fill="#E1261D"/>
<path d="M58.36 65.27H53.46C53.4821 65.7934 53.6999 66.2893 54.0703 66.6597C54.4407 67.0301 54.9366 67.2479 55.46 67.27C55.8706 67.2892 56.2771 67.1814 56.6242 66.9613C56.9713 66.7412 57.2422 66.4196 57.4 66.04L58.19 66.23C57.9909 66.7865 57.6179 67.264 57.1262 67.5918C56.6344 67.9196 56.0502 68.0803 55.46 68.05C54.6643 68.0434 53.9039 67.721 53.346 67.1537C52.7881 66.5864 52.4784 65.8207 52.485 65.025C52.4916 64.2294 52.8141 63.469 53.3814 62.911C53.9487 62.3531 54.7144 62.0434 55.51 62.05C55.8832 62.0473 56.2531 62.1194 56.5979 62.2621C56.9427 62.4049 57.2554 62.6154 57.5174 62.8811C57.7794 63.1469 57.9854 63.4625 58.1233 63.8092C58.2611 64.156 58.328 64.5269 58.32 64.9L58.36 65.27ZM53.49 64.61H57.49C57.4542 64.1291 57.235 63.6803 56.8776 63.3564C56.5203 63.0326 56.0521 62.8584 55.57 62.87C55.0681 62.8457 54.5755 63.0113 54.1901 63.3337C53.8047 63.6561 53.5547 64.1117 53.49 64.61V64.61Z" fill="#E1261D"/>
<path d="M64.86 67.11H66.65V67.97H62.14V67.13H63.93V60.97H62.13V60.15H66.64V60.97H64.85L64.86 67.11Z" fill="#E1261D"/>
<path d="M73.34 64.52V67.97H72.45V64.71C72.4768 64.4862 72.4559 64.2593 72.3889 64.044C72.3218 63.8288 72.21 63.6302 72.0609 63.4612C71.9117 63.2922 71.7285 63.1566 71.5233 63.0634C71.318 62.9701 71.0954 62.9213 70.87 62.92C69.67 62.92 68.87 63.73 68.87 65.22V67.97H67.99V62.25H68.93V63.25C69.1656 62.8976 69.4883 62.6121 69.8667 62.4211C70.2452 62.2302 70.6666 62.1402 71.09 62.16C71.3954 62.1582 71.6979 62.2189 71.979 62.3383C72.26 62.4577 72.5137 62.6333 72.7245 62.8543C72.9352 63.0753 73.0985 63.3371 73.2043 63.6236C73.3102 63.91 73.3564 64.2151 73.34 64.52V64.52Z" fill="#E1261D"/>
<path d="M77.78 67.97H76.78L74.25 62.25H75.25L77.3 66.92L79.3 62.25H80.3L77.78 67.97Z" fill="#E1261D"/>
<path d="M86.63 65.27H81.72C81.7452 65.8009 81.9707 66.3026 82.3512 66.6737C82.7316 67.0449 83.2386 67.258 83.77 67.27C84.1806 67.2892 84.5871 67.1814 84.9342 66.9613C85.2813 66.7412 85.5522 66.4196 85.71 66.04L86.5 66.23C86.3009 66.7865 85.9279 67.2639 85.4362 67.5918C84.9444 67.9196 84.3602 68.0803 83.77 68.05C82.9743 68.05 82.2113 67.734 81.6487 67.1714C81.0861 66.6087 80.77 65.8457 80.77 65.05C80.77 64.2544 81.0861 63.4913 81.6487 62.9287C82.2113 62.3661 82.9743 62.05 83.77 62.05C84.1534 62.04 84.5348 62.1091 84.8903 62.2531C85.2459 62.3971 85.5679 62.6128 85.8363 62.8868C86.1047 63.1608 86.3137 63.4873 86.4502 63.8457C86.5868 64.2041 86.648 64.5869 86.63 64.97V65.27ZM81.76 64.61H85.76C85.7195 64.1309 85.4989 63.6849 85.1426 63.362C84.7863 63.0391 84.3208 62.8633 83.84 62.87C83.3381 62.8457 82.8455 63.0113 82.4601 63.3337C82.0746 63.6561 81.8247 64.1117 81.76 64.61V64.61Z" fill="#E1261D"/>
<path d="M88.58 66.21C88.66 66.96 89.36 67.37 90.26 67.37C91.16 67.37 91.63 66.98 91.63 66.37C91.63 65.76 91.27 65.68 90.69 65.55L89.38 65.26C88.43 65.06 87.9 64.59 87.9 63.8C87.9 62.8 88.75 62.07 90.06 62.07C90.5754 62.0135 91.0941 62.1425 91.523 62.4339C91.9518 62.7253 92.2628 63.16 92.4 63.66L91.55 63.84C91.4612 63.5193 91.2595 63.2414 90.982 63.0576C90.7045 62.8739 90.37 62.7966 90.04 62.84C89.23 62.84 88.78 63.23 88.78 63.78C88.78 64.33 89.09 64.44 89.65 64.57L91.03 64.87C91.86 65.05 92.5 65.49 92.5 66.36C92.5 67.49 91.56 68.13 90.19 68.13C88.82 68.13 87.84 67.55 87.7 66.43L88.58 66.21Z" fill="#E1261D"/>
<path d="M97.52 67.64C97.1439 67.9368 96.6791 68.0987 96.2 68.1C95.9423 68.1205 95.6831 68.084 95.4411 67.9931C95.199 67.9021 94.98 67.7589 94.7995 67.5737C94.6191 67.3885 94.4817 67.1658 94.3971 66.9214C94.3125 66.6771 94.2828 66.4171 94.31 66.16V62.97H93.07V62.23H94.31V60.23H95.2V62.23H97.2V62.97H95.2V66.1C95.1754 66.2493 95.185 66.4022 95.228 66.5472C95.2711 66.6922 95.3464 66.8256 95.4485 66.9373C95.5505 67.0489 95.6766 67.136 95.8172 67.1919C95.9577 67.2478 96.1091 67.2711 96.26 67.26C96.6216 67.2501 96.9712 67.1278 97.26 66.91L97.52 67.64Z" fill="#E1261D"/>
<path d="M99.84 60.5C99.8415 60.5796 99.8266 60.6586 99.7962 60.7322C99.7658 60.8058 99.7206 60.8723 99.6633 60.9277C99.6061 60.983 99.5381 61.026 99.4636 61.0539C99.389 61.0818 99.3095 61.0941 99.23 61.09C99.1513 61.0927 99.0729 61.0794 98.9995 61.0509C98.9262 61.0223 98.8594 60.9791 98.8033 60.9239C98.7471 60.8687 98.7028 60.8026 98.673 60.7298C98.6432 60.6569 98.6286 60.5787 98.63 60.5C98.63 60.4217 98.6456 60.3441 98.6759 60.2719C98.7061 60.1996 98.7505 60.1342 98.8063 60.0792C98.8622 60.0243 98.9284 59.9811 99.0012 59.952C99.0739 59.9229 99.1517 59.9087 99.23 59.91C99.3088 59.9087 99.3871 59.9229 99.4604 59.9518C99.5337 59.9808 99.6006 60.0238 99.6572 60.0786C99.7139 60.1334 99.7592 60.1988 99.7905 60.2711C99.8219 60.3434 99.8387 60.4212 99.84 60.5V60.5ZM98.84 67.95V62.23H99.73V67.97L98.84 67.95Z" fill="#E1261D"/>
<path d="M107.34 68.19C107.328 68.5647 107.239 68.9329 107.08 69.2721C106.92 69.6114 106.693 69.9144 106.412 70.1625C106.131 70.4107 105.802 70.5988 105.446 70.7153C105.09 70.8318 104.713 70.8742 104.34 70.84C103.779 70.9006 103.213 70.792 102.714 70.5283C102.215 70.2646 101.806 69.8577 101.54 69.36L102.29 68.79C102.459 69.1828 102.749 69.5113 103.118 69.7273C103.486 69.9432 103.915 70.0353 104.34 69.99C104.606 70.0062 104.872 69.969 105.124 69.8808C105.375 69.7925 105.607 69.6549 105.804 69.4761C106.002 69.2972 106.161 69.0807 106.274 68.8392C106.387 68.5978 106.45 68.3362 106.46 68.07V66.97C106.202 67.3274 105.86 67.6157 105.464 67.8093C105.068 68.0029 104.63 68.0959 104.19 68.08C103.394 68.08 102.631 67.7639 102.069 67.2013C101.506 66.6387 101.19 65.8756 101.19 65.08C101.19 64.2843 101.506 63.5213 102.069 62.9587C102.631 62.396 103.394 62.08 104.19 62.08C104.63 62.062 105.067 62.1531 105.463 62.345C105.859 62.5369 106.202 62.8238 106.46 63.18V62.18H107.35L107.34 68.19ZM106.45 65.09C106.459 64.8035 106.411 64.518 106.309 64.2503C106.206 63.9827 106.051 63.7382 105.853 63.5314C105.654 63.3245 105.416 63.1595 105.153 63.0459C104.89 62.9323 104.607 62.8725 104.32 62.87C103.731 62.87 103.167 63.1039 102.75 63.5202C102.334 63.9365 102.1 64.5012 102.1 65.09C102.1 65.6788 102.334 66.2434 102.75 66.6597C103.167 67.0761 103.731 67.31 104.32 67.31C104.607 67.3075 104.89 67.2477 105.153 67.1341C105.416 67.0205 105.654 66.8554 105.853 66.6486C106.051 66.4417 106.206 66.1973 106.309 65.9296C106.411 65.662 106.459 65.3765 106.45 65.09V65.09Z" fill="#E1261D"/>
<path d="M113.93 64.23V67.97H113.07V67.1C112.819 67.425 112.493 67.6854 112.121 67.8593C111.749 68.0332 111.341 68.1158 110.93 68.1C109.67 68.1 108.85 67.38 108.85 66.35C108.85 65.32 109.65 64.56 111.15 64.56H113.07V64.29C113.082 64.0969 113.053 63.9033 112.983 63.7227C112.914 63.5421 112.806 63.3787 112.667 63.2438C112.528 63.1088 112.362 63.0056 112.179 62.941C111.997 62.8765 111.803 62.8523 111.61 62.87C111.249 62.8269 110.885 62.9198 110.59 63.1306C110.294 63.3414 110.087 63.655 110.01 64.01L109.16 63.83C109.287 63.2997 109.6 62.8325 110.042 62.5133C110.485 62.194 111.027 62.0439 111.57 62.09C111.871 62.0489 112.177 62.0742 112.467 62.164C112.757 62.2538 113.024 62.4061 113.249 62.61C113.474 62.814 113.651 63.0647 113.769 63.3445C113.887 63.6244 113.942 63.9266 113.93 64.23V64.23ZM113.07 65.56V65.26H111.14C110.2 65.26 109.7 65.71 109.7 66.33C109.7 66.95 110.23 67.33 111.05 67.33C111.302 67.3518 111.556 67.3231 111.797 67.2455C112.037 67.1679 112.26 67.0431 112.452 66.8782C112.644 66.7133 112.801 66.5118 112.914 66.2854C113.027 66.0591 113.094 65.8124 113.11 65.56H113.07Z" fill="#E1261D"/>
<path d="M120.12 65.97L120.93 66.19C120.743 66.7535 120.379 67.2418 119.893 67.5823C119.407 67.9227 118.823 68.0973 118.23 68.08C117.434 68.08 116.671 67.7639 116.109 67.2013C115.546 66.6387 115.23 65.8757 115.23 65.08C115.23 64.2844 115.546 63.5213 116.109 62.9587C116.671 62.3961 117.434 62.08 118.23 62.08C118.823 62.0643 119.406 62.2395 119.892 62.5798C120.378 62.92 120.742 63.4073 120.93 63.97L120.09 64.23C119.971 63.8301 119.723 63.4809 119.385 63.2367C119.047 62.9925 118.637 62.8671 118.22 62.88C117.935 62.877 117.652 62.9322 117.389 63.0421C117.126 63.152 116.888 63.3144 116.689 63.5193C116.491 63.7242 116.336 63.9674 116.235 64.234C116.134 64.5006 116.088 64.7851 116.1 65.07C116.085 65.3552 116.129 65.6405 116.229 65.9079C116.329 66.1753 116.484 66.4191 116.683 66.6238C116.882 66.8286 117.122 66.9899 117.386 67.0977C117.651 67.2055 117.934 67.2573 118.22 67.25C118.632 67.266 119.038 67.1505 119.379 66.9204C119.721 66.6903 119.98 66.3574 120.12 65.97V65.97Z" fill="#E1261D"/>
<path d="M123.63 60.5C123.631 60.5796 123.617 60.6586 123.586 60.7322C123.556 60.8058 123.511 60.8723 123.453 60.9277C123.396 60.983 123.328 61.026 123.254 61.0539C123.179 61.0818 123.1 61.0941 123.02 61.09C122.941 61.0927 122.863 61.0794 122.79 61.0509C122.716 61.0223 122.649 60.9791 122.593 60.9239C122.537 60.8687 122.493 60.8026 122.463 60.7298C122.433 60.6569 122.419 60.5787 122.42 60.5C122.42 60.4217 122.436 60.3441 122.466 60.2719C122.496 60.1996 122.54 60.1342 122.596 60.0792C122.652 60.0243 122.718 59.9811 122.791 59.952C122.864 59.9229 122.942 59.9087 123.02 59.91C123.099 59.9087 123.177 59.9229 123.25 59.9518C123.324 59.9808 123.391 60.0238 123.447 60.0786C123.504 60.1334 123.549 60.1988 123.581 60.2711C123.612 60.3434 123.629 60.4212 123.63 60.5V60.5ZM122.63 67.95V62.23H123.52V67.97L122.63 67.95Z" fill="#E1261D"/>
<path d="M131.19 65.08C131.19 65.6733 131.014 66.2534 130.684 66.7467C130.355 67.2401 129.886 67.6246 129.338 67.8516C128.79 68.0787 128.187 68.1381 127.605 68.0224C127.023 67.9066 126.488 67.6209 126.069 67.2013C125.649 66.7818 125.363 66.2472 125.248 65.6653C125.132 65.0833 125.191 64.4801 125.418 63.9319C125.645 63.3838 126.03 62.9152 126.523 62.5856C127.017 62.2559 127.597 62.08 128.19 62.08C128.986 62.08 129.749 62.3961 130.311 62.9587C130.874 63.5213 131.19 64.2844 131.19 65.08ZM130.32 65.08C130.32 64.5045 130.091 63.9525 129.684 63.5456C129.277 63.1386 128.726 62.91 128.15 62.91C127.574 62.91 127.023 63.1386 126.616 63.5456C126.209 63.9525 125.98 64.5045 125.98 65.08C125.98 65.6555 126.209 66.2075 126.616 66.6144C127.023 67.0214 127.574 67.25 128.15 67.25C128.726 67.25 129.277 67.0214 129.684 66.6144C130.091 66.2075 130.32 65.6555 130.32 65.08ZM127.83 61.31L128.76 59.69H129.76L128.58 61.31H127.83Z" fill="#E1261D"/>
<path d="M138.06 64.52V67.97H137.18V64.71C137.205 64.4857 137.183 64.2585 137.115 64.0433C137.047 63.828 136.934 63.6296 136.784 63.4608C136.634 63.292 136.45 63.1566 136.244 63.0634C136.039 62.9703 135.816 62.9214 135.59 62.92C134.4 62.92 133.59 63.73 133.59 65.22V67.97H132.71V62.25H133.59V63.25C133.824 62.8962 134.147 62.6096 134.525 62.4184C134.904 62.2273 135.326 62.1382 135.75 62.16C136.061 62.1483 136.371 62.2018 136.659 62.3169C136.948 62.432 137.21 62.6063 137.428 62.8286C137.645 63.0508 137.814 63.3161 137.923 63.6074C138.032 63.8987 138.078 64.2096 138.06 64.52V64.52Z" fill="#E1261D"/>
<path d="M7.61001 78.87H2.71C2.73209 79.3933 2.9499 79.8893 3.32029 80.2597C3.69069 80.6301 4.18666 80.8479 4.71 80.87C5.13047 80.902 5.5503 80.8003 5.9095 80.5794C6.26869 80.3585 6.54887 80.0297 6.71 79.64L7.49 79.83C7.29092 80.3864 6.91789 80.8639 6.42617 81.1917C5.93445 81.5196 5.35021 81.6802 4.76001 81.65C3.96436 81.642 3.20446 81.3183 2.64747 80.7501C2.09049 80.1819 1.78205 79.4156 1.79001 78.62C1.79796 77.8243 2.12167 77.0644 2.6899 76.5075C3.25814 75.9505 4.02436 75.642 4.82 75.65C5.19234 75.6486 5.56119 75.7217 5.90482 75.865C6.24845 76.0084 6.55992 76.2191 6.82086 76.4847C7.0818 76.7503 7.28694 77.0654 7.42418 77.4115C7.56143 77.7577 7.62802 78.1277 7.62001 78.5L7.61001 78.87ZM2.74 78.21H6.74C6.7043 77.7308 6.48649 77.2835 6.13128 76.9599C5.77607 76.6363 5.31043 76.461 4.83001 76.47C4.32918 76.4545 3.84002 76.6229 3.45495 76.9435C3.06987 77.2641 2.81553 77.7147 2.74 78.21Z" fill="#E1261D"/>
<path d="M14.5 78.12V81.55H13.62V78.29C13.6452 78.0656 13.623 77.8385 13.5548 77.6232C13.4865 77.408 13.3737 77.2095 13.2238 77.0407C13.0738 76.8719 12.8901 76.7366 12.6844 76.6434C12.4787 76.5502 12.2558 76.5014 12.03 76.5C10.84 76.5 10.03 77.31 10.03 78.8V81.55H9.14999V75.83H10.03V76.78C10.2642 76.4262 10.5866 76.1396 10.9654 75.9484C11.3442 75.7573 11.7663 75.6682 12.19 75.69C12.5067 75.6789 12.8221 75.7352 13.1154 75.855C13.4088 75.9749 13.6734 76.1556 13.8917 76.3853C14.11 76.615 14.2771 76.8883 14.382 77.1874C14.4868 77.4864 14.5271 77.8043 14.5 78.12V78.12Z" fill="#E1261D"/>
<path d="M23.93 77.59C24.3764 77.638 24.7873 77.8558 25.0777 78.1983C25.368 78.5407 25.5157 78.9817 25.49 79.43C25.4945 79.7351 25.4329 80.0375 25.3092 80.3165C25.1856 80.5954 25.0029 80.8442 24.7739 81.0457C24.5448 81.2472 24.2747 81.3967 23.9823 81.4838C23.6898 81.5708 23.382 81.5934 23.08 81.55H19.4V73.78H22.93C23.2174 73.7349 23.5112 73.753 23.7908 73.8331C24.0705 73.9132 24.3293 74.0533 24.5493 74.2438C24.7692 74.4342 24.9449 74.6703 25.0642 74.9356C25.1835 75.2009 25.2435 75.4891 25.24 75.78C25.276 76.1854 25.1628 76.5899 24.9216 76.9177C24.6803 77.2455 24.3277 77.4739 23.93 77.56V77.59ZM20.27 77.25H22.93C23.1163 77.2604 23.3028 77.2322 23.4776 77.1669C23.6525 77.1017 23.8119 77.0009 23.9458 76.8709C24.0797 76.741 24.1852 76.5847 24.2557 76.4119C24.3262 76.2391 24.36 76.0535 24.3552 75.867C24.3503 75.6804 24.3068 75.4969 24.2275 75.328C24.1481 75.1591 24.0346 75.0085 23.8941 74.8857C23.7536 74.7629 23.5892 74.6705 23.4112 74.6145C23.2332 74.5584 23.0455 74.5399 22.86 74.56H20.31L20.27 77.25ZM23 80.76C23.1984 80.7843 23.3998 80.7658 23.5905 80.7058C23.7812 80.6457 23.9568 80.5456 24.1056 80.412C24.2543 80.2784 24.3728 80.1145 24.4529 79.9313C24.533 79.7481 24.5729 79.5499 24.57 79.35C24.5694 79.1568 24.5286 78.9659 24.4502 78.7894C24.3717 78.6129 24.2574 78.4546 24.1143 78.3248C23.9713 78.1949 23.8028 78.0963 23.6196 78.0352C23.4363 77.9741 23.2423 77.9519 23.05 77.97H20.31V80.73L23 80.76Z" fill="#E1261D"/>
<path d="M28.33 74.1C28.33 74.2618 28.2657 74.4169 28.1513 74.5313C28.0369 74.6457 27.8818 74.71 27.72 74.71C27.5582 74.71 27.403 74.6457 27.2887 74.5313C27.1743 74.4169 27.11 74.2618 27.11 74.1C27.1113 74.0212 27.1281 73.9434 27.1595 73.8711C27.1908 73.7988 27.2361 73.7334 27.2928 73.6786C27.3494 73.6238 27.4163 73.5807 27.4896 73.5518C27.5629 73.5229 27.6412 73.5086 27.72 73.51C27.8784 73.5099 28.0306 73.5714 28.1444 73.6815C28.2582 73.7916 28.3248 73.9417 28.33 74.1V74.1ZM27.28 81.55V75.83H28.17V81.55H27.28Z" fill="#E1261D"/>
<path d="M35.93 78.68C35.93 79.2733 35.754 79.8534 35.4244 80.3467C35.0948 80.84 34.6262 81.2246 34.078 81.4516C33.5299 81.6787 32.9267 81.7381 32.3447 81.6223C31.7628 81.5066 31.2282 81.2209 30.8087 80.8013C30.3891 80.3817 30.1034 79.8472 29.9876 79.2653C29.8719 78.6833 29.9313 78.0801 30.1584 77.5319C30.3854 76.9838 30.7699 76.5152 31.2633 76.1856C31.7566 75.8559 32.3366 75.68 32.93 75.68C33.3258 75.6732 33.719 75.7462 34.086 75.8946C34.453 76.0429 34.7865 76.2637 35.0664 76.5436C35.3463 76.8235 35.567 77.1569 35.7154 77.524C35.8638 77.891 35.9368 78.2842 35.93 78.68ZM35.06 78.68C35.06 78.1045 34.8314 77.5525 34.4244 77.1456C34.0175 76.7386 33.4655 76.51 32.89 76.51C32.3145 76.51 31.7625 76.7386 31.3556 77.1456C30.9486 77.5525 30.72 78.1045 30.72 78.68C30.72 79.2555 30.9486 79.8075 31.3556 80.2144C31.7625 80.6214 32.3145 80.85 32.89 80.85C33.4655 80.85 34.0175 80.6214 34.4244 80.2144C34.8314 79.8075 35.06 79.2555 35.06 78.68Z" fill="#E1261D"/>
<path d="M41.98 77.83V81.55H41.12V80.68C40.8692 81.0056 40.544 81.2664 40.1717 81.4404C39.7993 81.6144 39.3907 81.6966 38.98 81.68C38.7319 81.709 38.4805 81.6872 38.2412 81.6159C38.0018 81.5446 37.7794 81.4254 37.5876 81.2654C37.3958 81.1054 37.2386 80.908 37.1255 80.6853C37.0125 80.4626 36.9459 80.2192 36.93 79.97C36.93 78.97 37.73 78.19 39.23 78.19H41.15V77.92C41.1641 77.7264 41.1357 77.5321 41.0667 77.3507C40.9978 77.1693 40.8899 77.0051 40.7508 76.8698C40.6117 76.7345 40.4446 76.6313 40.2614 76.5674C40.0781 76.5035 39.8831 76.4805 39.69 76.5C39.3289 76.4545 38.9639 76.5465 38.6675 76.7577C38.3711 76.9689 38.165 77.2838 38.09 77.64L37.25 77.46C37.3732 76.9294 37.6839 76.4612 38.1249 76.1415C38.5658 75.8218 39.1074 75.6721 39.65 75.72C39.9459 75.6841 40.2461 75.7122 40.5302 75.8024C40.8143 75.8927 41.0757 76.043 41.2967 76.2431C41.5176 76.4432 41.693 76.6884 41.8109 76.9622C41.9288 77.236 41.9865 77.5319 41.98 77.83V77.83ZM41.12 79.16V78.85H39.19C38.25 78.85 37.75 79.31 37.75 79.93C37.75 80.55 38.28 80.93 39.11 80.93C39.6109 80.9601 40.1033 80.7909 40.4799 80.4593C40.8565 80.1277 41.0866 79.6606 41.12 79.16V79.16Z" fill="#E1261D"/>
<path d="M47.38 75.82L47.31 76.66H46.93C45.41 76.66 44.63 77.81 44.63 79.35V81.56H43.74V75.84H44.63V77.24C44.8426 76.8092 45.1697 76.4451 45.5753 76.1876C45.981 75.9301 46.4496 75.7891 46.93 75.78C47.0812 75.7657 47.2337 75.7792 47.38 75.82V75.82Z" fill="#E1261D"/>
<path d="M53.93 84.33H53.05V80.59C52.7909 80.9462 52.4485 81.2335 52.0529 81.427C51.6572 81.6205 51.2202 81.7142 50.78 81.7C49.9843 81.7 49.2213 81.384 48.6587 80.8214C48.0961 80.2587 47.78 79.4957 47.78 78.7C47.78 77.9044 48.0961 77.1413 48.6587 76.5787C49.2213 76.0161 49.9843 75.7 50.78 75.7C51.2191 75.6865 51.6549 75.7794 52.0502 75.971C52.4455 76.1625 52.7886 76.447 53.05 76.8V75.8H53.93V84.33ZM53.05 78.69C53.0593 78.4044 53.0116 78.1197 52.9096 77.8527C52.8076 77.5857 52.6534 77.3417 52.456 77.135C52.2586 76.9283 52.022 76.763 51.76 76.6488C51.498 76.5346 51.2158 76.4739 50.93 76.47C50.3412 76.47 49.7766 76.7039 49.3602 77.1203C48.9439 77.5366 48.71 78.1013 48.71 78.69C48.71 79.2788 48.9439 79.8435 49.3602 80.2598C49.7766 80.6761 50.3412 80.91 50.93 80.91C51.2154 80.9049 51.4969 80.8432 51.7583 80.7285C52.0197 80.6139 52.2558 80.4486 52.453 80.2421C52.6501 80.0357 52.8044 79.7923 52.9068 79.5259C53.0093 79.2594 53.058 78.9754 53.05 78.69V78.69Z" fill="#E1261D"/>
<path d="M61.12 81.53H60.23V80.61C59.99 80.9566 59.6659 81.2367 59.2881 81.4238C58.9103 81.611 58.4912 81.6991 58.07 81.68C57.7545 81.6898 57.4406 81.6325 57.1489 81.5119C56.8572 81.3913 56.5945 81.2102 56.378 80.9805C56.1616 80.7508 55.9963 80.4778 55.8932 80.1795C55.7902 79.8811 55.7516 79.5644 55.78 79.25V75.83H56.67V79.09C56.6447 79.3126 56.6666 79.538 56.7344 79.7515C56.8023 79.965 56.9145 80.1617 57.0636 80.3288C57.2128 80.496 57.3956 80.6297 57.6001 80.7212C57.8045 80.8127 58.026 80.86 58.25 80.86C59.44 80.86 60.25 80.06 60.25 78.58V75.83H61.14L61.12 81.53Z" fill="#E1261D"/>
<path d="M68.43 78.87H63.53C63.5521 79.3934 63.7699 79.8893 64.1403 80.2597C64.5107 80.6301 65.0067 80.8479 65.53 80.87C65.9406 80.8892 66.3471 80.7814 66.6942 80.5613C67.0413 80.3412 67.3122 80.0195 67.47 79.64L68.26 79.83C68.0609 80.3864 67.6879 80.8639 67.1962 81.1918C66.7044 81.5196 66.1202 81.6803 65.53 81.65C64.7344 81.6434 63.9739 81.321 63.416 80.7537C62.8581 80.1864 62.5484 79.4207 62.555 78.625C62.5616 77.8294 62.8841 77.0689 63.4514 76.511C64.0187 75.9531 64.7843 75.6434 65.58 75.65C65.9532 75.6472 66.3231 75.7194 66.6679 75.8621C67.0127 76.0049 67.3254 76.2154 67.5874 76.4811C67.8494 76.7468 68.0554 77.0624 68.1933 77.4092C68.3311 77.756 68.398 78.1269 68.39 78.5L68.43 78.87ZM63.56 78.21H67.56C67.5219 77.73 67.3019 77.2826 66.9451 76.9592C66.5883 76.6358 66.1215 76.4609 65.64 76.47C65.1381 76.4457 64.6455 76.6112 64.2601 76.9337C63.8747 77.2561 63.6247 77.7117 63.56 78.21V78.21Z" fill="#E1261D"/>
<path d="M75.53 78.68C75.53 79.2733 75.3541 79.8533 75.0244 80.3467C74.6948 80.84 74.2262 81.2246 73.6781 81.4516C73.1299 81.6787 72.5267 81.7381 71.9447 81.6223C71.3628 81.5066 70.8282 81.2209 70.4087 80.8013C69.9891 80.3817 69.7034 79.8472 69.5876 79.2653C69.4719 78.6833 69.5313 78.0801 69.7584 77.5319C69.9854 76.9838 70.3699 76.5152 70.8633 76.1856C71.3566 75.8559 71.9367 75.68 72.53 75.68C73.3257 75.68 74.0887 75.9961 74.6513 76.5587C75.2139 77.1213 75.53 77.8843 75.53 78.68ZM74.66 78.68C74.66 78.1045 74.4314 77.5525 74.0244 77.1456C73.6175 76.7386 73.0655 76.51 72.49 76.51C71.9145 76.51 71.3625 76.7386 70.9556 77.1456C70.5486 77.5525 70.32 78.1045 70.32 78.68C70.32 79.2555 70.5486 79.8074 70.9556 80.2144C71.3625 80.6214 71.9145 80.85 72.49 80.85C73.0655 80.85 73.6175 80.6214 74.0244 80.2144C74.4314 79.8074 74.66 79.2555 74.66 78.68V78.68Z" fill="#E1261D"/>
<path d="M77.84 80.08C77.8352 80.1859 77.8532 80.2915 77.8928 80.3898C77.9324 80.4881 77.9926 80.5767 78.0694 80.6497C78.1462 80.7227 78.2378 80.7784 78.3379 80.8129C78.4381 80.8475 78.5445 80.8601 78.65 80.85C78.8888 80.8433 79.1223 80.778 79.33 80.66L79.52 81.41C79.2204 81.5984 78.8739 81.6989 78.52 81.7C78.3116 81.7119 78.1031 81.6792 77.9083 81.6042C77.7136 81.5293 77.537 81.4137 77.3903 81.2651C77.2437 81.1166 77.1304 80.9386 77.0579 80.7428C76.9854 80.5471 76.9555 80.3382 76.97 80.13V72.62H77.85L77.84 80.08Z" fill="#E1261D"/>
<path d="M86.18 78.68C86.18 79.2733 86.0041 79.8533 85.6744 80.3467C85.3448 80.84 84.8762 81.2246 84.328 81.4516C83.7799 81.6787 83.1767 81.7381 82.5947 81.6223C82.0128 81.5066 81.4782 81.2209 81.0587 80.8013C80.6391 80.3817 80.3534 79.8472 80.2376 79.2653C80.1219 78.6833 80.1813 78.0801 80.4084 77.5319C80.6354 76.9838 81.0199 76.5152 81.5133 76.1856C82.0066 75.8559 82.5866 75.68 83.18 75.68C83.9756 75.68 84.7387 75.9961 85.3013 76.5587C85.8639 77.1213 86.18 77.8843 86.18 78.68ZM85.31 78.68C85.31 78.1045 85.0814 77.5525 84.6744 77.1456C84.2675 76.7386 83.7155 76.51 83.14 76.51C82.5645 76.51 82.0125 76.7386 81.6056 77.1456C81.1986 77.5525 80.97 78.1045 80.97 78.68C80.97 79.2555 81.1986 79.8074 81.6056 80.2144C82.0125 80.6214 82.5645 80.85 83.14 80.85C83.7155 80.85 84.2675 80.6214 84.6744 80.2144C85.0814 79.8074 85.31 79.2555 85.31 78.68Z" fill="#E1261D"/>
<path d="M93.21 81.79C93.1979 82.1647 93.1094 82.5329 92.9498 82.8722C92.7902 83.2114 92.563 83.5144 92.282 83.7626C92.0011 84.0108 91.6723 84.1989 91.316 84.3154C90.9597 84.4319 90.5833 84.4743 90.21 84.44C89.6489 84.5006 89.0825 84.3921 88.5836 84.1284C88.0846 83.8646 87.6759 83.4578 87.41 82.96L88.16 82.39C88.336 82.7772 88.6276 83.1004 88.9946 83.3152C89.3617 83.5301 89.7862 83.6261 90.21 83.59C90.4768 83.6076 90.7443 83.5715 90.9969 83.4839C91.2495 83.3962 91.4819 83.2589 91.6805 83.0799C91.8791 82.9009 92.0398 82.6839 92.153 82.4417C92.2663 82.1996 92.3299 81.9371 92.34 81.67V80.59C92.0793 80.9469 91.7352 81.2347 91.3378 81.4281C90.9404 81.6216 90.5017 81.7149 90.06 81.7C89.2643 81.7 88.5013 81.3839 87.9387 80.8213C87.3761 80.2587 87.06 79.4956 87.06 78.7C87.06 77.9043 87.3761 77.1413 87.9387 76.5787C88.5013 76.0161 89.2643 75.7 90.06 75.7C90.5006 75.6856 90.9382 75.7782 91.3352 75.9698C91.7323 76.1613 92.077 76.4462 92.34 76.8V75.8H93.22L93.21 81.79ZM92.33 78.69C92.3393 78.4027 92.291 78.1164 92.1878 77.8481C92.0846 77.5797 91.9286 77.3348 91.729 77.1279C91.5295 76.9209 91.2905 76.756 91.0262 76.643C90.7618 76.53 90.4775 76.4712 90.19 76.47C89.6012 76.47 89.0365 76.7039 88.6202 77.1202C88.2039 77.5366 87.97 78.1012 87.97 78.69C87.97 79.2788 88.2039 79.8435 88.6202 80.2598C89.0365 80.6761 89.6012 80.91 90.19 80.91C90.4771 80.9075 90.7608 80.8477 91.0245 80.7342C91.2882 80.6208 91.5267 80.4559 91.7259 80.2492C91.9252 80.0425 92.0812 79.7981 92.185 79.5304C92.2887 79.2627 92.338 78.977 92.33 78.69V78.69Z" fill="#E1261D"/>
<path d="M95.44 81.55V75.83H96.33V81.55H95.44ZM95.55 74.97L96.48 73.35H97.48L96.33 74.97H95.55Z" fill="#E1261D"/>
<path d="M103.11 77.83V81.55H102.26V80.68C102.007 81.0058 101.68 81.2666 101.306 81.4405C100.932 81.6144 100.522 81.6965 100.11 81.68C99.8596 81.7134 99.605 81.6949 99.3621 81.6257C99.1192 81.5565 98.8931 81.4379 98.698 81.2775C98.5028 81.1171 98.3428 80.9182 98.2279 80.6933C98.113 80.4683 98.0456 80.2221 98.03 79.97C98.03 78.97 98.83 78.19 100.33 78.19H102.26V77.92C102.273 77.7259 102.243 77.5314 102.173 77.3501C102.102 77.1687 101.994 77.0047 101.854 76.8696C101.714 76.7345 101.546 76.6315 101.363 76.5676C101.179 76.5038 100.984 76.4807 100.79 76.5C100.429 76.4545 100.064 76.5465 99.7675 76.7577C99.4711 76.9689 99.2649 77.2839 99.19 77.64L98.35 77.46C98.4751 76.9305 98.7862 76.4635 99.2267 76.1441C99.6673 75.8248 100.208 75.6743 100.75 75.72C101.048 75.6794 101.352 75.704 101.64 75.7921C101.927 75.8802 102.193 76.0298 102.417 76.2304C102.641 76.431 102.819 76.6779 102.939 76.9541C103.059 77.2302 103.117 77.5291 103.11 77.83ZM102.26 79.16V78.85H100.32C99.38 78.85 98.88 79.31 98.88 79.93C98.88 80.55 99.41 80.93 100.24 80.93C100.742 80.9602 101.235 80.7914 101.614 80.46C101.992 80.1286 102.224 79.6615 102.26 79.16V79.16Z" fill="#E1261D"/>
<path d="M109.3 84.33H108.3L109.61 81.46L107.05 75.83H108.05L110.05 80.4L112.14 75.83H113.14L109.3 84.33Z" fill="#E1261D"/>
<path d="M8.28001 95.15L7.41002 93.15H3.32001L2.45001 95.15H1.45001L4.93002 87.38H5.78001L9.26002 95.15H8.28001ZM5.37002 88.51L3.68002 92.35H7.05002L5.37002 88.51Z" fill="#E1261D"/>
<path d="M15.78 91.72V95.15H14.93V91.89C14.9552 91.6657 14.933 91.4385 14.8648 91.2233C14.7965 91.0081 14.6837 90.8096 14.5338 90.6408C14.3838 90.472 14.2001 90.3366 13.9944 90.2434C13.7887 90.1503 13.5658 90.1014 13.34 90.1C12.14 90.1 11.34 90.91 11.34 92.4V95.15H10.46V89.43H11.34V90.38C11.5756 90.0276 11.8983 89.7421 12.2767 89.5511C12.6552 89.3602 13.0766 89.2702 13.5 89.29C13.8142 89.2833 14.1263 89.3427 14.416 89.4645C14.7057 89.5863 14.9666 89.7676 15.1816 89.9968C15.3967 90.226 15.5611 90.4979 15.6642 90.7948C15.7673 91.0916 15.8067 91.4069 15.78 91.72V91.72Z" fill="#E1261D"/>
<path d="M21.15 94.84C20.7739 95.1368 20.3091 95.2987 19.83 95.3C19.5715 95.3221 19.3112 95.2868 19.0679 95.1965C18.8246 95.1062 18.6043 94.9633 18.4227 94.7779C18.2411 94.5925 18.1028 94.3692 18.0176 94.1241C17.9325 93.879 17.9025 93.618 17.93 93.36V90.17H16.7V89.43H17.93V87.38H18.82V89.43H20.82V90.17H18.82V93.3C18.7967 93.4441 18.8051 93.5915 18.8448 93.732C18.8845 93.8724 18.9544 94.0025 19.0497 94.113C19.145 94.2236 19.2633 94.3119 19.3964 94.3719C19.5295 94.4318 19.6741 94.4619 19.82 94.46C20.1815 94.4495 20.5309 94.3272 20.82 94.11L21.15 94.84Z" fill="#E1261D"/>
<path d="M25.93 89.42L25.86 90.26H25.52C24 90.26 23.22 91.41 23.22 92.95V95.16H22.33V89.44H23.22V90.84C23.4308 90.4077 23.7574 90.0424 24.1635 89.7847C24.5695 89.5269 25.0391 89.3868 25.52 89.38C25.658 89.3704 25.7965 89.3839 25.93 89.42V89.42Z" fill="#E1261D"/>
<path d="M32.53 92.28C32.53 92.8734 32.354 93.4534 32.0244 93.9467C31.6948 94.4401 31.2262 94.8246 30.678 95.0517C30.1299 95.2787 29.5267 95.3381 28.9447 95.2224C28.3628 95.1066 27.8282 94.8209 27.4087 94.4014C26.9891 93.9818 26.7034 93.4472 26.5876 92.8653C26.4719 92.2834 26.5313 91.6802 26.7584 91.132C26.9854 90.5838 27.3699 90.1153 27.8633 89.7856C28.3566 89.456 28.9367 89.28 29.53 89.28C30.3256 89.28 31.0887 89.5961 31.6513 90.1587C32.2139 90.7213 32.53 91.4844 32.53 92.28V92.28ZM31.66 92.28C31.66 91.7045 31.4314 91.1526 31.0244 90.7456C30.6175 90.3387 30.0655 90.11 29.49 90.11C28.9145 90.11 28.3625 90.3387 27.9556 90.7456C27.5486 91.1526 27.32 91.7045 27.32 92.28C27.32 92.8555 27.5486 93.4075 27.9556 93.8145C28.3625 94.2214 28.9145 94.45 29.49 94.45C30.0655 94.45 30.6175 94.2214 31.0244 93.8145C31.4314 93.4075 31.66 92.8555 31.66 92.28V92.28Z" fill="#E1261D"/>
<path d="M40.08 92.29C40.0961 92.6757 40.0345 93.0606 39.8989 93.422C39.7633 93.7834 39.5564 94.1139 39.2905 94.3937C39.0247 94.6736 38.7052 94.8971 38.3513 95.0511C37.9973 95.205 37.616 95.2863 37.23 95.29C36.7883 95.3049 36.3496 95.2116 35.9522 95.0181C35.5548 94.8246 35.2107 94.5369 34.95 94.18V97.97H34.07V89.47H34.93V90.47C35.1912 90.1143 35.5356 89.828 35.9331 89.6362C36.3306 89.4444 36.769 89.353 37.21 89.37C37.5911 89.3699 37.9685 89.4458 38.32 89.5931C38.6715 89.7405 38.9901 89.9564 39.2573 90.2282C39.5245 90.5 39.7348 90.8223 39.8761 91.1763C40.0173 91.5303 40.0866 91.9089 40.08 92.29ZM39.22 92.29C39.2381 92.0014 39.196 91.7122 39.0966 91.4407C38.9971 91.1691 38.8424 90.9212 38.6422 90.7125C38.442 90.5039 38.2007 90.3391 37.9335 90.2284C37.6663 90.1178 37.3791 90.0639 37.09 90.07C36.5012 90.07 35.9366 90.3039 35.5202 90.7202C35.1039 91.1365 34.87 91.7012 34.87 92.29C34.87 92.8788 35.1039 93.4434 35.5202 93.8597C35.9366 94.2761 36.5012 94.51 37.09 94.51C37.3791 94.5161 37.6663 94.4621 37.9335 94.3515C38.2007 94.2409 38.442 94.0761 38.6422 93.8674C38.8424 93.6588 38.9971 93.4108 39.0966 93.1393C39.196 92.8678 39.2381 92.5786 39.22 92.29V92.29Z" fill="#E1261D"/>
<path d="M47.18 92.28C47.18 92.8734 47.004 93.4534 46.6744 93.9467C46.3448 94.4401 45.8762 94.8246 45.328 95.0517C44.7799 95.2787 44.1767 95.3381 43.5947 95.2224C43.0128 95.1066 42.4782 94.8209 42.0587 94.4014C41.6391 93.9818 41.3534 93.4472 41.2376 92.8653C41.1219 92.2834 41.1813 91.6802 41.4084 91.132C41.6354 90.5838 42.0199 90.1153 42.5133 89.7856C43.0066 89.456 43.5866 89.28 44.18 89.28C44.9756 89.28 45.7387 89.5961 46.3013 90.1587C46.8639 90.7213 47.18 91.4844 47.18 92.28ZM46.31 92.28C46.31 91.7045 46.0814 91.1526 45.6744 90.7456C45.2675 90.3387 44.7155 90.11 44.14 90.11C43.5645 90.11 43.0125 90.3387 42.6056 90.7456C42.1986 91.1526 41.97 91.7045 41.97 92.28C41.97 92.8555 42.1986 93.4075 42.6056 93.8145C43.0125 94.2214 43.5645 94.45 44.14 94.45C44.7155 94.45 45.2675 94.2214 45.6744 93.8145C46.0814 93.4075 46.31 92.8555 46.31 92.28Z" fill="#E1261D"/>
<path d="M49.49 93.68C49.4852 93.7858 49.5032 93.8915 49.5428 93.9898C49.5824 94.0881 49.6426 94.1767 49.7194 94.2497C49.7962 94.3227 49.8878 94.3784 49.9879 94.4129C50.0881 94.4475 50.1945 94.4601 50.3 94.45C50.5388 94.4432 50.7723 94.378 50.98 94.26L51.17 95.01C50.8704 95.1984 50.5239 95.2988 50.17 95.3C49.9616 95.3118 49.7531 95.2792 49.5583 95.2042C49.3635 95.1292 49.187 95.0136 49.0403 94.8651C48.8937 94.7166 48.7804 94.5385 48.7079 94.3428C48.6354 94.1471 48.6055 93.9382 48.62 93.73V86.22H49.5L49.49 93.68Z" fill="#E1261D"/>
<path d="M57.83 92.28C57.83 92.8734 57.654 93.4534 57.3244 93.9467C56.9948 94.4401 56.5262 94.8246 55.978 95.0517C55.4299 95.2787 54.8267 95.3381 54.2447 95.2224C53.6628 95.1066 53.1282 94.8209 52.7087 94.4014C52.2891 93.9818 52.0034 93.4472 51.8876 92.8653C51.7719 92.2834 51.8313 91.6802 52.0584 91.132C52.2854 90.5838 52.6699 90.1153 53.1633 89.7856C53.6566 89.456 54.2366 89.28 54.83 89.28C55.6256 89.28 56.3887 89.5961 56.9513 90.1587C57.5139 90.7213 57.83 91.4844 57.83 92.28V92.28ZM56.96 92.28C56.96 91.7045 56.7314 91.1526 56.3244 90.7456C55.9175 90.3387 55.3655 90.11 54.79 90.11C54.2145 90.11 53.6625 90.3387 53.2556 90.7456C52.8486 91.1526 52.62 91.7045 52.62 92.28C52.62 92.8555 52.8486 93.4075 53.2556 93.8145C53.6625 94.2214 54.2145 94.45 54.79 94.45C55.3655 94.45 55.9175 94.2214 56.3244 93.8145C56.7314 93.4075 56.96 92.8555 56.96 92.28Z" fill="#E1261D"/>
<path d="M64.86 95.39C64.8479 95.7646 64.7594 96.1329 64.5998 96.4721C64.4402 96.8113 64.213 97.1143 63.932 97.3625C63.6511 97.6107 63.3223 97.7988 62.966 97.9153C62.6097 98.0318 62.2333 98.0742 61.86 98.04C61.2989 98.1006 60.7325 97.992 60.2336 97.7283C59.7347 97.4646 59.326 97.0577 59.06 96.56L59.81 95.99C59.976 96.3741 60.2582 96.6964 60.617 96.9117C60.9758 97.127 61.393 97.2243 61.81 97.19C62.0768 97.2075 62.3443 97.1714 62.5969 97.0838C62.8495 96.9962 63.082 96.8588 63.2805 96.6798C63.4791 96.5008 63.6398 96.2838 63.7531 96.0417C63.8663 95.7995 63.9299 95.5371 63.94 95.27V94.19C63.6793 94.5469 63.3353 94.8346 62.9379 95.0281C62.5404 95.2216 62.1017 95.3149 61.66 95.3C60.8644 95.3 60.1013 94.9839 59.5387 94.4213C58.9761 93.8587 58.66 93.0956 58.66 92.3C58.66 91.5043 58.9761 90.7413 59.5387 90.1786C60.1013 89.616 60.8644 89.3 61.66 89.3C62.101 89.283 62.5394 89.3744 62.9369 89.5662C63.3344 89.758 63.6788 90.0442 63.94 90.4V89.4H64.82L64.86 95.39ZM63.98 92.29C63.9894 92.0026 63.941 91.7163 63.8378 91.448C63.7346 91.1797 63.5786 90.9348 63.3791 90.7278C63.1795 90.5208 62.9405 90.356 62.6762 90.243C62.4118 90.13 62.1275 90.0712 61.84 90.07C61.2512 90.07 60.6866 90.3039 60.2702 90.7202C59.8539 91.1365 59.62 91.7012 59.62 92.29C59.62 92.8788 59.8539 93.4434 60.2702 93.8597C60.6866 94.2761 61.2512 94.51 61.84 94.51C62.1271 94.5074 62.4108 94.4477 62.6745 94.3342C62.9382 94.2207 63.1767 94.0558 63.376 93.8491C63.5752 93.6424 63.7313 93.3981 63.835 93.1304C63.9387 92.8627 63.988 92.577 63.98 92.29Z" fill="#E1261D"/>
<path d="M67.09 95.15V89.43H67.98V95.15H67.09ZM67.2 88.57L68.13 86.95H69.13L67.95 88.57H67.2Z" fill="#E1261D"/>
<path d="M74.76 91.43V95.15H73.93V94.28C73.6792 94.6056 73.354 94.8664 72.9817 95.0404C72.6093 95.2144 72.2007 95.2966 71.79 95.28C71.5364 95.3136 71.2786 95.2939 71.0331 95.2222C70.7876 95.1506 70.5596 95.0285 70.3639 94.8639C70.1682 94.6992 70.009 94.4955 69.8964 94.2659C69.7838 94.0362 69.7203 93.7856 69.71 93.53C69.71 92.48 70.51 91.74 72.01 91.74H73.93V91.47C73.9441 91.2764 73.9157 91.0821 73.8467 90.9007C73.7778 90.7193 73.6699 90.5552 73.5308 90.4198C73.3917 90.2845 73.2246 90.1813 73.0414 90.1174C72.8581 90.0535 72.6631 90.0305 72.47 90.05C72.1093 90.0069 71.7454 90.0998 71.4496 90.3106C71.1537 90.5214 70.9471 90.835 70.87 91.19L70.03 91.01C70.1551 90.4805 70.4662 90.0135 70.9068 89.6941C71.3473 89.3748 71.8878 89.2242 72.43 89.27C72.7302 89.2333 73.0349 89.2626 73.3226 89.3557C73.6104 89.4488 73.8744 89.6036 74.0963 89.8093C74.3181 90.0149 74.4924 90.2664 74.607 90.5464C74.7217 90.8263 74.7739 91.1278 74.76 91.43V91.43ZM73.9 92.76V92.46H71.93C70.99 92.46 70.49 92.91 70.49 93.53C70.49 94.15 71.02 94.53 71.85 94.53C72.1036 94.5546 72.3596 94.528 72.6027 94.4517C72.8458 94.3755 73.0711 94.251 73.2652 94.0859C73.4593 93.9208 73.6181 93.7183 73.7323 93.4905C73.8465 93.2627 73.9138 93.0143 73.93 92.76H73.9Z" fill="#E1261D"/>
<path d="M80.44 90.91H84.68V91.74H80.44V95.15H79.52V87.38H85.09V88.2H80.44V90.91Z" fill="#E1261D"/>
<path d="M91.7 92.28C91.7 92.8734 91.524 93.4534 91.1944 93.9467C90.8647 94.4401 90.3962 94.8246 89.848 95.0517C89.2999 95.2787 88.6967 95.3381 88.1147 95.2224C87.5328 95.1066 86.9982 94.8209 86.5787 94.4014C86.1591 93.9818 85.8734 93.4472 85.7576 92.8653C85.6419 92.2834 85.7013 91.6802 85.9284 91.132C86.1554 90.5838 86.5399 90.1153 87.0333 89.7856C87.5266 89.456 88.1066 89.28 88.7 89.28C89.4956 89.28 90.2587 89.5961 90.8213 90.1587C91.3839 90.7213 91.7 91.4844 91.7 92.28ZM90.83 92.28C90.83 91.7045 90.6014 91.1526 90.1944 90.7456C89.7875 90.3387 89.2355 90.11 88.66 90.11C88.0845 90.11 87.5325 90.3387 87.1256 90.7456C86.7186 91.1526 86.49 91.7045 86.49 92.28C86.49 92.8555 86.7186 93.4075 87.1256 93.8145C87.5325 94.2214 88.0845 94.45 88.66 94.45C89.2355 94.45 89.7875 94.2214 90.1944 93.8145C90.6014 93.4075 90.83 92.8555 90.83 92.28V92.28Z" fill="#E1261D"/>
<path d="M96.84 89.42L96.77 90.26H96.43C94.91 90.26 94.14 91.41 94.14 92.95V95.16H93.24V89.44H94.14V90.84C94.3473 90.4071 94.6717 90.0408 95.0764 89.7828C95.4811 89.5248 95.95 89.3852 96.43 89.38C96.5679 89.3698 96.7066 89.3833 96.84 89.42V89.42Z" fill="#E1261D"/>
<path d="M103.15 92.47H98.24C98.2497 93.0021 98.462 93.5105 98.8337 93.8914C99.2053 94.2724 99.7083 94.4972 100.24 94.52C100.66 94.552 101.08 94.4503 101.439 94.2294C101.799 94.0085 102.079 93.6797 102.24 93.29L103.03 93.48C102.83 94.0382 102.456 94.5169 101.962 94.8448C101.468 95.1728 100.882 95.3325 100.29 95.3C99.4944 95.2921 98.7345 94.9684 98.1775 94.4001C97.6205 93.8319 97.312 93.0657 97.32 92.27C97.328 91.4744 97.6517 90.7145 98.2199 90.1575C98.7881 89.6005 99.5544 89.2921 100.35 89.3C100.723 89.2986 101.092 89.3717 101.436 89.5149C101.78 89.6582 102.093 89.8687 102.354 90.1341C102.616 90.3996 102.822 90.7146 102.96 91.0608C103.099 91.407 103.167 91.7773 103.16 92.15L103.15 92.47ZM98.28 91.81H102.28C102.244 91.3308 102.026 90.8835 101.671 90.5599C101.316 90.2363 100.85 90.061 100.37 90.07C99.8664 90.0431 99.3713 90.2075 98.9838 90.5301C98.5962 90.8528 98.3449 91.3099 98.28 91.81V91.81Z" fill="#E1261D"/>
<path d="M110.04 91.72V95.15H109.16V91.89C109.185 91.6656 109.163 91.4384 109.095 91.2232C109.026 91.008 108.914 90.8096 108.764 90.6407C108.614 90.4719 108.43 90.3366 108.224 90.2434C108.019 90.1502 107.796 90.1014 107.57 90.1C106.37 90.1 105.57 90.91 105.57 92.4V95.15H104.68V89.43H105.57V90.38C105.803 90.027 106.123 89.7408 106.5 89.5496C106.877 89.3584 107.298 89.269 107.72 89.29C108.037 89.2775 108.354 89.3326 108.649 89.4519C108.943 89.5711 109.209 89.7516 109.428 89.9814C109.648 90.2113 109.816 90.4851 109.921 90.7849C110.027 91.0846 110.067 91.4034 110.04 91.72V91.72Z" fill="#E1261D"/>
<path d="M112.37 93.41C112.45 94.16 113.15 94.57 114.05 94.57C114.95 94.57 115.42 94.18 115.42 93.57C115.42 92.96 115.06 92.88 114.48 92.75L113.17 92.46C112.17 92.26 111.69 91.79 111.69 91C111.69 90 112.55 89.27 113.86 89.27C114.374 89.216 114.89 89.3462 115.317 89.6374C115.744 89.9286 116.053 90.3619 116.19 90.86L115.34 91.04C115.266 90.7063 115.07 90.4121 114.791 90.2144C114.512 90.0167 114.17 89.9296 113.83 89.97C113.02 89.97 112.57 90.36 112.57 90.91C112.57 91.46 112.88 91.57 113.44 91.7L114.82 92C115.65 92.18 116.29 92.62 116.29 93.49C116.29 94.62 115.35 95.26 113.98 95.26C112.61 95.26 111.63 94.68 111.49 93.56L112.37 93.41Z" fill="#E1261D"/>
<path d="M123.12 92.47H118.22C118.23 93.0021 118.442 93.5105 118.814 93.8914C119.185 94.2724 119.688 94.4972 120.22 94.52C120.632 94.5413 121.041 94.4345 121.39 94.2143C121.739 93.994 122.012 93.6712 122.17 93.29L122.96 93.48C122.759 94.0372 122.384 94.515 121.891 94.8428C121.397 95.1705 120.812 95.3308 120.22 95.3C119.424 95.2921 118.664 94.9684 118.107 94.4001C117.55 93.8319 117.242 93.0657 117.25 92.27C117.258 91.4744 117.582 90.7145 118.15 90.1575C118.718 89.6005 119.484 89.2921 120.28 89.3C120.652 89.2986 121.021 89.3717 121.365 89.5151C121.708 89.6584 122.02 89.8691 122.281 90.1347C122.542 90.4003 122.747 90.7155 122.884 91.0616C123.021 91.4077 123.088 91.7778 123.08 92.15L123.12 92.47ZM118.25 91.81H122.25C122.214 91.3308 121.996 90.8835 121.641 90.5599C121.286 90.2363 120.82 90.061 120.34 90.07C119.84 90.0567 119.352 90.2259 118.967 90.5461C118.582 90.8663 118.328 91.3156 118.25 91.81V91.81Z" fill="#E1261D"/>
</g>
<defs>
<clipPath id="clip0_1_302">
<rect width="145.77" height="98.05" fill="white"/>
</clipPath>
</defs>
</svg>
