<svg width="309" height="261" viewBox="0 0 309 261" fill="none" xmlns="http://www.w3.org/2000/svg" >
<g filter="url(#filter0_d_205_8)">
<path d="M45 71.1957C45 65.8421 47.8532 60.8944 52.4868 58.2129L145.589 4.33452C150.182 1.67652 155.837 1.64315 160.461 4.24679L256.36 58.2435C261.08 60.9012 264 65.8972 264 71.314V180.609C264 185.98 261.128 190.941 256.471 193.616L160.529 248.721C155.872 251.396 150.139 251.377 145.5 248.671L52.4419 194.387C47.8337 191.699 45 186.765 45 181.43V71.1957Z" fill="#336390" stroke="#262A4D" stroke-width="4"/>
<mask id="path-2-outside-1_205_8" maskUnits="userSpaceOnUse" x="58" y="158" width="192" height="31" fill="black">
<rect fill="white" x="58" y="158" width="192" height="31"/>
<path d="M59 183.311V163.129L63.1291 159H75.0952L79.2244 163.129V169.049H72.9464V165.088H65.278V181.352H72.9464V177.392H79.2244V183.311L75.0952 187.441H63.1291L59 183.311Z"/>
<path d="M84.0583 183.311V163.129L88.1874 159H100.217L104.346 163.129V183.311L100.217 187.441H88.1874L84.0583 183.311ZM90.3362 181.352H98.0678V165.088H90.3362V181.352Z"/>
<path d="M109.199 187.441V159H115.456L121.06 167.785L126.684 159H132.941V187.441H126.663V169.47L121.081 177.834L115.477 169.47V187.441H109.199Z"/>
<path d="M137.796 187.441V159H144.053L149.656 167.785L155.281 159H161.538V187.441H155.26V169.47L149.677 177.834L144.074 169.47V187.441H137.796Z"/>
<path d="M166.94 187.441V159H173.218V187.441H166.94Z"/>
<path d="M185.376 187.441V165.088H177.77V159H199.259V165.088H191.654V187.441H185.376Z"/>
<path d="M203.26 183.311V177.96H209.538V181.373H217.459V176.106H212.15V170.208H217.459V165.067H209.538V168.48H203.26V163.129L207.389 159H219.608L223.737 163.129V170.482L221.083 173.157L223.737 175.833V183.311L219.608 187.441H207.389L203.26 183.311Z"/>
<path d="M228.565 183.311V163.129L232.694 159H244.871L249 163.129V167.216H242.722V165.067H234.843V169.512H244.871L249 173.642V183.311L244.871 187.441H232.694L228.565 183.311ZM234.843 181.373H242.722V175.411H234.843V181.373Z"/>
</mask>
<path d="M59 183.311V163.129L63.1291 159H75.0952L79.2244 163.129V169.049H72.9464V165.088H65.278V181.352H72.9464V177.392H79.2244V183.311L75.0952 187.441H63.1291L59 183.311Z" fill="#FFF5FD"/>
<path d="M84.0583 183.311V163.129L88.1874 159H100.217L104.346 163.129V183.311L100.217 187.441H88.1874L84.0583 183.311ZM90.3362 181.352H98.0678V165.088H90.3362V181.352Z" fill="#FFF5FD"/>
<path d="M109.199 187.441V159H115.456L121.06 167.785L126.684 159H132.941V187.441H126.663V169.47L121.081 177.834L115.477 169.47V187.441H109.199Z" fill="#FFF5FD"/>
<path d="M137.796 187.441V159H144.053L149.656 167.785L155.281 159H161.538V187.441H155.26V169.47L149.677 177.834L144.074 169.47V187.441H137.796Z" fill="#FFF5FD"/>
<path d="M166.94 187.441V159H173.218V187.441H166.94Z" fill="#FFF5FD"/>
<path d="M185.376 187.441V165.088H177.77V159H199.259V165.088H191.654V187.441H185.376Z" fill="#FFF5FD"/>
<path d="M203.26 183.311V177.96H209.538V181.373H217.459V176.106H212.15V170.208H217.459V165.067H209.538V168.48H203.26V163.129L207.389 159H219.608L223.737 163.129V170.482L221.083 173.157L223.737 175.833V183.311L219.608 187.441H207.389L203.26 183.311Z" fill="#FFF5FD"/>
<path d="M228.565 183.311V163.129L232.694 159H244.871L249 163.129V167.216H242.722V165.067H234.843V169.512H244.871L249 173.642V183.311L244.871 187.441H232.694L228.565 183.311ZM234.843 181.373H242.722V175.411H234.843V181.373Z" fill="#FFF5FD"/>
<path d="M59 183.311V163.129L63.1291 159H75.0952L79.2244 163.129V169.049H72.9464V165.088H65.278V181.352H72.9464V177.392H79.2244V183.311L75.0952 187.441H63.1291L59 183.311Z" stroke="#336390" stroke-width="2" mask="url(#path-2-outside-1_205_8)"/>
<path d="M84.0583 183.311V163.129L88.1874 159H100.217L104.346 163.129V183.311L100.217 187.441H88.1874L84.0583 183.311ZM90.3362 181.352H98.0678V165.088H90.3362V181.352Z" stroke="#336390" stroke-width="2" mask="url(#path-2-outside-1_205_8)"/>
<path d="M109.199 187.441V159H115.456L121.06 167.785L126.684 159H132.941V187.441H126.663V169.47L121.081 177.834L115.477 169.47V187.441H109.199Z" stroke="#336390" stroke-width="2" mask="url(#path-2-outside-1_205_8)"/>
<path d="M137.796 187.441V159H144.053L149.656 167.785L155.281 159H161.538V187.441H155.26V169.47L149.677 177.834L144.074 169.47V187.441H137.796Z" stroke="#336390" stroke-width="2" mask="url(#path-2-outside-1_205_8)"/>
<path d="M166.94 187.441V159H173.218V187.441H166.94Z" stroke="#336390" stroke-width="2" mask="url(#path-2-outside-1_205_8)"/>
<path d="M185.376 187.441V165.088H177.77V159H199.259V165.088H191.654V187.441H185.376Z" stroke="#336390" stroke-width="2" mask="url(#path-2-outside-1_205_8)"/>
<path d="M203.26 183.311V177.96H209.538V181.373H217.459V176.106H212.15V170.208H217.459V165.067H209.538V168.48H203.26V163.129L207.389 159H219.608L223.737 163.129V170.482L221.083 173.157L223.737 175.833V183.311L219.608 187.441H207.389L203.26 183.311Z" stroke="#336390" stroke-width="2" mask="url(#path-2-outside-1_205_8)"/>
<path d="M228.565 183.311V163.129L232.694 159H244.871L249 163.129V167.216H242.722V165.067H234.843V169.512H244.871L249 173.642V183.311L244.871 187.441H232.694L228.565 183.311ZM234.843 181.373H242.722V175.411H234.843V181.373Z" stroke="#336390" stroke-width="2" mask="url(#path-2-outside-1_205_8)"/>
<mask id="path-3-outside-2_205_8" maskUnits="userSpaceOnUse" x="58" y="158" width="192" height="31" fill="black">
<rect fill="white" x="58" y="158" width="192" height="31"/>
<path d="M59 183.311V163.129L63.1291 159H75.0952L79.2244 163.129V169.049H72.9464V165.088H65.278V181.352H72.9464V177.392H79.2244V183.311L75.0952 187.441H63.1291L59 183.311Z"/>
<path d="M84.0583 183.311V163.129L88.1874 159H100.217L104.346 163.129V183.311L100.217 187.441H88.1874L84.0583 183.311ZM90.3362 181.352H98.0678V165.088H90.3362V181.352Z"/>
<path d="M109.199 187.441V159H115.456L121.06 167.785L126.684 159H132.941V187.441H126.663V169.47L121.081 177.834L115.477 169.47V187.441H109.199Z"/>
<path d="M137.796 187.441V159H144.053L149.656 167.785L155.281 159H161.538V187.441H155.26V169.47L149.677 177.834L144.074 169.47V187.441H137.796Z"/>
<path d="M166.94 187.441V159H173.218V187.441H166.94Z"/>
<path d="M185.376 187.441V165.088H177.77V159H199.259V165.088H191.654V187.441H185.376Z"/>
<path d="M203.26 183.311V177.96H209.538V181.373H217.459V176.106H212.15V170.208H217.459V165.067H209.538V168.48H203.26V163.129L207.389 159H219.608L223.737 163.129V170.482L221.083 173.157L223.737 175.833V183.311L219.608 187.441H207.389L203.26 183.311Z"/>
<path d="M228.565 183.311V163.129L232.694 159H244.871L249 163.129V167.216H242.722V165.067H234.843V169.512H244.871L249 173.642V183.311L244.871 187.441H232.694L228.565 183.311ZM234.843 181.373H242.722V175.411H234.843V181.373Z"/>
</mask>
<path d="M59 183.311V163.129L63.1291 159H75.0952L79.2244 163.129V169.049H72.9464V165.088H65.278V181.352H72.9464V177.392H79.2244V183.311L75.0952 187.441H63.1291L59 183.311Z" fill="#FFF5FD"/>
<path d="M84.0583 183.311V163.129L88.1874 159H100.217L104.346 163.129V183.311L100.217 187.441H88.1874L84.0583 183.311ZM90.3362 181.352H98.0678V165.088H90.3362V181.352Z" fill="#FFF5FD"/>
<path d="M109.199 187.441V159H115.456L121.06 167.785L126.684 159H132.941V187.441H126.663V169.47L121.081 177.834L115.477 169.47V187.441H109.199Z" fill="#FFF5FD"/>
<path d="M137.796 187.441V159H144.053L149.656 167.785L155.281 159H161.538V187.441H155.26V169.47L149.677 177.834L144.074 169.47V187.441H137.796Z" fill="#FFF5FD"/>
<path d="M166.94 187.441V159H173.218V187.441H166.94Z" fill="#FFF5FD"/>
<path d="M185.376 187.441V165.088H177.77V159H199.259V165.088H191.654V187.441H185.376Z" fill="#FFF5FD"/>
<path d="M203.26 183.311V177.96H209.538V181.373H217.459V176.106H212.15V170.208H217.459V165.067H209.538V168.48H203.26V163.129L207.389 159H219.608L223.737 163.129V170.482L221.083 173.157L223.737 175.833V183.311L219.608 187.441H207.389L203.26 183.311Z" fill="#FFF5FD"/>
<path d="M228.565 183.311V163.129L232.694 159H244.871L249 163.129V167.216H242.722V165.067H234.843V169.512H244.871L249 173.642V183.311L244.871 187.441H232.694L228.565 183.311ZM234.843 181.373H242.722V175.411H234.843V181.373Z" fill="#FFF5FD"/>
<path d="M59 183.311V163.129L63.1291 159H75.0952L79.2244 163.129V169.049H72.9464V165.088H65.278V181.352H72.9464V177.392H79.2244V183.311L75.0952 187.441H63.1291L59 183.311Z" stroke="#336390" stroke-width="2" mask="url(#path-3-outside-2_205_8)"/>
<path d="M84.0583 183.311V163.129L88.1874 159H100.217L104.346 163.129V183.311L100.217 187.441H88.1874L84.0583 183.311ZM90.3362 181.352H98.0678V165.088H90.3362V181.352Z" stroke="#336390" stroke-width="2" mask="url(#path-3-outside-2_205_8)"/>
<path d="M109.199 187.441V159H115.456L121.06 167.785L126.684 159H132.941V187.441H126.663V169.47L121.081 177.834L115.477 169.47V187.441H109.199Z" stroke="#336390" stroke-width="2" mask="url(#path-3-outside-2_205_8)"/>
<path d="M137.796 187.441V159H144.053L149.656 167.785L155.281 159H161.538V187.441H155.26V169.47L149.677 177.834L144.074 169.47V187.441H137.796Z" stroke="#336390" stroke-width="2" mask="url(#path-3-outside-2_205_8)"/>
<path d="M166.94 187.441V159H173.218V187.441H166.94Z" stroke="#336390" stroke-width="2" mask="url(#path-3-outside-2_205_8)"/>
<path d="M185.376 187.441V165.088H177.77V159H199.259V165.088H191.654V187.441H185.376Z" stroke="#336390" stroke-width="2" mask="url(#path-3-outside-2_205_8)"/>
<path d="M203.26 183.311V177.96H209.538V181.373H217.459V176.106H212.15V170.208H217.459V165.067H209.538V168.48H203.26V163.129L207.389 159H219.608L223.737 163.129V170.482L221.083 173.157L223.737 175.833V183.311L219.608 187.441H207.389L203.26 183.311Z" stroke="#336390" stroke-width="2" mask="url(#path-3-outside-2_205_8)"/>
<path d="M228.565 183.311V163.129L232.694 159H244.871L249 163.129V167.216H242.722V165.067H234.843V169.512H244.871L249 173.642V183.311L244.871 187.441H232.694L228.565 183.311ZM234.843 181.373H242.722V175.411H234.843V181.373Z" stroke="#336390" stroke-width="2" mask="url(#path-3-outside-2_205_8)"/>
<path d="M153.276 42.9106C157.946 42.9106 161.732 39.125 161.732 34.4553C161.732 29.7856 157.946 26 153.276 26C148.607 26 144.821 29.7856 144.821 34.4553C144.821 39.125 148.607 42.9106 153.276 42.9106Z" fill="#FFF5FD"/>
<path d="M153.602 83.8862C159.888 83.8862 164.984 78.7903 164.984 72.5041C164.984 66.2179 159.888 61.122 153.602 61.122C147.316 61.122 142.22 66.2179 142.22 72.5041C142.22 78.7903 147.316 83.8862 153.602 83.8862Z" fill="#FFF5FD"/>
<path d="M133.114 62.4228C135.269 62.4228 137.016 60.6756 137.016 58.5204C137.016 56.3651 135.269 54.618 133.114 54.618C130.959 54.618 129.211 56.3651 129.211 58.5204C129.211 60.6756 130.959 62.4228 133.114 62.4228Z" fill="#FFF5FD"/>
<path d="M116.203 92.3415C119.077 92.3415 121.407 90.0119 121.407 87.1382C121.407 84.2646 119.077 81.935 116.203 81.935C113.33 81.935 111 84.2646 111 87.1382C111 90.0119 113.33 92.3415 116.203 92.3415Z" fill="#FFF5FD"/>
<path d="M144.171 97.5447C145.967 97.5447 147.423 96.0887 147.423 94.2926C147.423 92.4966 145.967 91.0406 144.171 91.0406C142.375 91.0406 140.919 92.4966 140.919 94.2926C140.919 96.0887 142.375 97.5447 144.171 97.5447Z" fill="#FFF5FD"/>
<path d="M191 88.7643C191 90.3806 189.69 91.6911 188.073 91.6911C186.457 91.6911 185.146 90.3806 185.146 88.7643C185.146 87.1479 186.457 85.8374 188.073 85.8374C189.69 85.8374 191 87.1479 191 88.7643Z" fill="#FFF5FD"/>
<path d="M166.285 117.057C170.236 117.057 173.439 113.854 173.439 109.902C173.439 105.951 170.236 102.748 166.285 102.748C162.333 102.748 159.13 105.951 159.13 109.902C159.13 113.854 162.333 117.057 166.285 117.057Z" fill="#FFF5FD"/>
<path d="M177.992 72.8293C181.943 72.8293 185.146 69.6261 185.146 65.6748C185.146 61.7235 181.943 58.5203 177.992 58.5203C174.041 58.5203 170.837 61.7235 170.837 65.6748C170.837 69.6261 174.041 72.8293 177.992 72.8293Z" fill="#FFF5FD"/>
<path d="M153.276 35.1057V62.4228" stroke="#FFF5FD" stroke-width="3.29032"/>
<path d="M132.594 58.7805L153.406 74.3903" stroke="#FFF5FD" stroke-width="2.19355"/>
<path d="M115.627 88.2195L153.35 73.9106" stroke="#FFF5FD" stroke-width="2.74194"/>
<path d="M152.517 74.6515L143.411 95.4644" stroke="#FFF5FD" stroke-width="2.19355"/>
<path d="M153.851 73.6926L166.859 110.115" stroke="#FFF5FD" stroke-width="2.19355"/>
<path d="M153.049 71.9502L188.171 88.8608" stroke="#FFF5FD" stroke-width="1.64516"/>
<path d="M151.099 71.8802L178.416 65.3761" stroke="#FFF5FD" stroke-width="1.64516"/>
<path d="M112.201 144.114C112.201 144.515 112.123 144.891 111.967 145.242C111.82 145.594 111.615 145.901 111.352 146.165C111.098 146.419 110.795 146.624 110.443 146.78C110.092 146.927 109.716 147 109.315 147H101.273C100.883 147 100.512 146.927 100.16 146.78C99.8086 146.624 99.501 146.419 99.2373 146.165C98.9834 145.901 98.7783 145.594 98.6221 145.242C98.4756 144.891 98.4023 144.515 98.4023 144.114V125.394H101.273V134.153C101.293 133.772 101.381 133.416 101.537 133.084C101.693 132.742 101.898 132.449 102.152 132.205C102.416 131.951 102.719 131.756 103.061 131.619C103.402 131.473 103.769 131.399 104.159 131.399H109.315C109.716 131.399 110.092 131.478 110.443 131.634C110.795 131.78 111.098 131.985 111.352 132.249C111.615 132.503 111.82 132.806 111.967 133.157C112.123 133.509 112.201 133.885 112.201 134.285V144.114ZM101.273 134.285V144.114H109.315V134.285H101.273ZM117.006 131.399H119.877V144.114H127.919V131.399H130.805V147H127.919V144.363C127.89 144.725 127.792 145.066 127.626 145.389C127.46 145.711 127.245 145.994 126.981 146.238C126.728 146.473 126.435 146.658 126.103 146.795C125.771 146.932 125.419 147 125.048 147H119.877C119.486 147 119.115 146.927 118.764 146.78C118.412 146.624 118.104 146.419 117.841 146.165C117.587 145.901 117.382 145.594 117.226 145.242C117.079 144.891 117.006 144.515 117.006 144.114V131.399ZM138.642 131.399V147H135.756V131.399H138.642ZM135.609 125.394H138.788V128.396H135.609V125.394ZM146.479 125.394V147H143.607V125.394H146.479ZM151.283 134.285C151.283 133.885 151.356 133.509 151.503 133.157C151.659 132.806 151.864 132.503 152.118 132.249C152.382 131.985 152.689 131.78 153.041 131.634C153.393 131.478 153.764 131.399 154.154 131.399H162.196V125.394H165.082V147H162.196V144.363C162.167 144.725 162.069 145.066 161.903 145.389C161.737 145.711 161.522 145.994 161.259 146.238C161.005 146.473 160.712 146.658 160.38 146.795C160.048 146.932 159.696 147 159.325 147H154.154C153.764 147 153.393 146.927 153.041 146.78C152.689 146.624 152.382 146.419 152.118 146.165C151.864 145.901 151.659 145.594 151.503 145.242C151.356 144.891 151.283 144.515 151.283 144.114V134.285ZM154.154 144.114H162.196V134.285H154.154V144.114ZM192.68 144.114C192.68 144.515 192.602 144.891 192.445 145.242C192.299 145.594 192.094 145.901 191.83 146.165C191.576 146.419 191.273 146.624 190.922 146.78C190.57 146.927 190.194 147 189.794 147H181.752C181.361 147 180.99 146.927 180.639 146.78C180.287 146.624 179.979 146.419 179.716 146.165C179.462 145.901 179.257 145.594 179.101 145.242C178.954 144.891 178.881 144.515 178.881 144.114V125.394H181.752V134.153C181.771 133.772 181.859 133.416 182.016 133.084C182.172 132.742 182.377 132.449 182.631 132.205C182.895 131.951 183.197 131.756 183.539 131.619C183.881 131.473 184.247 131.399 184.638 131.399H189.794C190.194 131.399 190.57 131.478 190.922 131.634C191.273 131.78 191.576 131.985 191.83 132.249C192.094 132.503 192.299 132.806 192.445 133.157C192.602 133.509 192.68 133.885 192.68 134.285V144.114ZM181.752 134.285V144.114H189.794V134.285H181.752ZM198.539 153.299L201.806 145.594L195.683 131.399H198.715L203.271 142.137L207.826 131.399H210.858L201.41 153.299H198.539Z" fill="#E9E6E6" fill-opacity="0.9"/>
</g>
<defs>
<filter id="filter0_d_205_8" x="39" y="0" width="231" height="261.046" filterUnits="userSpaceOnUse" color-interpolation-filters="sRGB">
<feFlood flood-opacity="0" result="BackgroundImageFix"/>
<feColorMatrix in="SourceAlpha" type="matrix" values="0 0 0 0 0 0 0 0 0 0 0 0 0 0 0 0 0 0 127 0" result="hardAlpha"/>
<feOffset dy="4"/>
<feGaussianBlur stdDeviation="2"/>
<feColorMatrix type="matrix" values="0 0 0 0 0 0 0 0 0 0 0 0 0 0 0 0 0 0 0.25 0"/>
<feBlend mode="normal" in2="BackgroundImageFix" result="effect1_dropShadow_205_8"/>
<feBlend mode="normal" in="SourceGraphic" in2="effect1_dropShadow_205_8" result="shape"/>
</filter>
</defs>
</svg>
