<svg width="206" height="28" viewBox="0 0 206 28" fill="none" xmlns="http://www.w3.org/2000/svg">
<g clip-path="url(#clip0_1_303)">
<path d="M4.59 0.409973H0V26.77H4.59V0.409973Z" fill="#C4291C"/>
<path d="M16.88 0.409973H12.29V26.77H16.88V0.409973Z" fill="#C4291C"/>
<path d="M26.16 19.33C27.96 21.51 31.16 23.2 33.53 23.2C37.1 23.2 38.87 21.55 38.87 18.99C38.87 17.19 36.99 15.79 33.11 15.46C27.21 15 24.28 12.15 24.28 8.08999C24.28 3.23999 28.15 -1.14614e-05 33.87 -1.14614e-05C35.5373 -0.00911281 37.1868 0.343834 38.7044 1.03444C40.222 1.72505 41.5716 2.73686 42.66 3.99999L39.84 6.99999C37.89 4.99999 35.93 3.91999 33.84 3.91999C30.84 3.91999 28.84 5.30999 28.84 7.52999C28.84 9.29999 30.68 10.65 34.44 10.95C40.44 11.4 43.44 14.41 43.44 18.81C43.44 23.81 40.09 27.12 33.55 27.12C31.5949 27.1498 29.6575 26.7465 27.8767 25.9391C26.0959 25.1317 24.5159 23.9402 23.25 22.45L26.16 19.33Z" fill="#C4291C"/>
<path d="M52.02 4.73998V0.419983H62.6L72.08 26.77H67.1L65.1 20.87H54.02L52.02 26.77H47.02L54.96 4.76998L52.02 4.73998ZM63.87 17.26L59.54 4.54998L55.26 17.26H63.87Z" fill="#C4291C"/>
<path d="M77.44 0.419983H87.06C93.4867 0.419983 96.6967 3.33998 96.69 9.17998C96.69 15.23 93.49 18.28 87.06 18.28H81.99V26.77H77.44V0.419983ZM87.25 14.55C90.52 14.55 92.14 12.75 92.14 9.13998C92.14 5.78998 90.37 4.13998 86.88 4.13998H81.99V14.55H87.25Z" fill="#C4291C"/>
<path d="M112.9 0.440002H112.14V6.81H112.9V0.440002Z" fill="#313134"/>
<path d="M114.54 0.440002H115.49L119.18 5.74H119.2V0.440002H119.96V6.82H119L115.31 1.52H115.29V6.82H114.54V0.440002Z" fill="#313134"/>
<path d="M124.6 1.57001C124.472 1.38237 124.299 1.23057 124.095 1.12904C123.892 1.02752 123.667 0.97966 123.44 0.990019C122.78 0.990019 122.08 1.30002 122.08 2.06002C122.08 2.64002 122.41 2.90002 123.42 3.23002C124.43 3.56002 125.33 3.87002 125.33 5.12002C125.33 6.37002 124.24 6.98002 123.09 6.98002C122.71 7.01068 122.328 6.9463 121.979 6.79269C121.63 6.63907 121.324 6.40104 121.09 6.10002L121.74 5.57001C121.883 5.7961 122.083 5.98066 122.32 6.10525C122.557 6.22983 122.823 6.2901 123.09 6.28002C123.74 6.28002 124.48 5.90002 124.48 5.17002C124.48 4.44002 123.95 4.25002 122.82 3.88002C121.92 3.58002 121.23 3.18002 121.23 2.12002C121.25 1.85615 121.322 1.59891 121.443 1.3632C121.563 1.12748 121.729 0.917985 121.931 0.74684C122.133 0.575695 122.366 0.446304 122.619 0.366171C122.871 0.286039 123.136 0.256758 123.4 0.28002C123.734 0.2591 124.069 0.315929 124.378 0.446051C124.687 0.576173 124.961 0.776052 125.18 1.03002L124.6 1.57001Z" fill="#313134"/>
<path d="M130.93 1.15H128.82V6.82H128.06V1.15H125.96V0.440002H130.93V1.15Z" fill="#313134"/>
<path d="M132.63 0.440002H131.87V6.81H132.63V0.440002Z" fill="#313134"/>
<path d="M138.54 1.15H136.43V6.82H135.68V1.15H133.57V0.440002H138.54V1.15Z" fill="#313134"/>
<path d="M144.26 4.39001C144.281 4.71888 144.235 5.04861 144.124 5.35882C144.012 5.66902 143.839 5.95311 143.613 6.19353C143.388 6.43394 143.115 6.62557 142.813 6.75658C142.511 6.88758 142.185 6.95517 141.855 6.95517C141.525 6.95517 141.199 6.88758 140.897 6.75658C140.595 6.62557 140.322 6.43394 140.097 6.19353C139.871 5.95311 139.698 5.66902 139.586 5.35882C139.475 5.04861 139.429 4.71888 139.45 4.39001V0.450012H140.21V4.28001C140.21 5.28001 140.59 6.28001 141.86 6.28001C143.13 6.28001 143.5 5.28001 143.5 4.28001V0.450012H144.26V4.39001Z" fill="#313134"/>
<path d="M150.15 1.15H148.04V6.82H147.29V1.15H145.18V0.440002H150.15V1.15Z" fill="#313134"/>
<path d="M150.72 3.63001C150.724 2.97227 150.923 2.33042 151.291 1.78545C151.659 1.24047 152.181 0.816762 152.789 0.567786C153.398 0.318811 154.067 0.255712 154.712 0.386451C155.356 0.517189 155.948 0.83591 156.412 1.30241C156.875 1.7689 157.191 2.36228 157.317 3.00768C157.444 3.65309 157.377 4.32161 157.125 4.92892C156.872 5.53624 156.445 6.05514 155.898 6.42017C155.351 6.78519 154.708 6.98 154.05 6.98001C153.608 6.99257 153.167 6.91434 152.756 6.75017C152.345 6.586 151.972 6.33937 151.66 6.02547C151.348 5.71158 151.104 5.33708 150.942 4.92509C150.78 4.51309 150.705 4.07234 150.72 3.63001M156.57 3.63001C156.545 3.13794 156.375 2.66411 156.084 2.26715C155.792 1.87019 155.39 1.56751 154.928 1.39655C154.466 1.2256 153.963 1.19387 153.483 1.30529C153.004 1.41671 152.567 1.6664 152.227 2.02346C151.888 2.38052 151.66 2.82929 151.573 3.31425C151.486 3.79921 151.543 4.29908 151.737 4.75202C151.931 5.20497 152.253 5.59111 152.664 5.86269C153.076 6.13426 153.557 6.27936 154.05 6.28001C154.395 6.28605 154.738 6.22085 155.056 6.0885C155.375 5.95615 155.663 5.75948 155.903 5.51078C156.142 5.26208 156.327 4.9667 156.447 4.6431C156.567 4.31949 156.619 3.97461 156.6 3.63001" fill="#313134"/>
<path d="M161.09 0.450012H163.54C164.354 0.495633 165.119 0.851071 165.679 1.44337C166.239 2.03566 166.551 2.81988 166.551 3.63501C166.551 4.45014 166.239 5.23436 165.679 5.82665C165.119 6.41895 164.354 6.77439 163.54 6.82001H161.09V0.450012ZM161.85 6.12001H163.29C163.953 6.12001 164.589 5.85662 165.058 5.38778C165.527 4.91894 165.79 4.28305 165.79 3.62001C165.79 2.95697 165.527 2.32108 165.058 1.85224C164.589 1.3834 163.953 1.12001 163.29 1.12001H161.85V6.12001Z" fill="#313134"/>
<path d="M167.93 0.440002H171.94V1.15H168.69V3.14H171.72V3.85H168.69V6.12H172.1V6.82H167.93V0.440002Z" fill="#313134"/>
<path d="M112.9 10.44H112.14V16.81H112.9V10.44Z" fill="#313134"/>
<path d="M114.54 10.44H115.49L119.18 15.73H119.2V10.44H119.96V16.82H119L115.31 11.52H115.29V16.82H114.54V10.44Z" fill="#313134"/>
<path d="M120.72 10.44H121.57L123.54 15.68H123.56L125.58 10.44H126.38L123.89 16.82H123.16L120.72 10.44Z" fill="#313134"/>
<path d="M127.14 10.44H131.15V11.14H127.9V13.14H130.94V13.85H127.9V16.11H131.31V16.82H127.14V10.44Z" fill="#313134"/>
<path d="M135.6 11.57C135.471 11.3837 135.297 11.233 135.094 11.1316C134.892 11.0302 134.667 10.9816 134.44 10.99C133.77 10.99 133.08 11.3 133.08 12.06C133.08 12.64 133.4 12.9 134.42 13.23C135.44 13.56 136.33 13.87 136.33 15.12C136.33 16.37 135.24 16.98 134.08 16.98C133.7 17.0098 133.318 16.945 132.969 16.7914C132.62 16.6379 132.315 16.4004 132.08 16.1L132.73 15.57C132.875 15.7969 133.077 15.9819 133.315 16.1064C133.554 16.231 133.821 16.2909 134.09 16.28C134.74 16.28 135.48 15.9 135.48 15.17C135.48 14.44 134.95 14.25 133.81 13.88C132.91 13.58 132.23 13.18 132.23 12.12C132.242 11.8532 132.309 11.5917 132.426 11.3519C132.544 11.1121 132.71 10.8992 132.913 10.7264C133.117 10.5537 133.354 10.4249 133.61 10.3481C133.866 10.2713 134.135 10.2481 134.4 10.28C134.734 10.2606 135.069 10.3182 135.377 10.4482C135.686 10.5782 135.96 10.7773 136.18 11.03L135.6 11.57Z" fill="#313134"/>
<path d="M141.86 11.14H139.75V16.82H139V11.14H136.89V10.44H141.86V11.14Z" fill="#313134"/>
<path d="M143.57 10.44H142.81V16.81H143.57V10.44Z" fill="#313134"/>
<path d="M150.6 16.39C149.869 16.7848 149.05 16.9878 148.22 16.98C147.771 17.004 147.323 16.9341 146.903 16.7749C146.483 16.6157 146.101 16.3707 145.781 16.0554C145.461 15.7402 145.21 15.3616 145.045 14.944C144.879 14.5264 144.803 14.0789 144.82 13.63C144.81 13.1805 144.892 12.7337 145.062 12.3174C145.232 11.9011 145.486 11.5242 145.807 11.21C146.129 10.8959 146.512 10.6512 146.932 10.4912C147.352 10.3312 147.801 10.2593 148.25 10.28C148.662 10.2628 149.074 10.3282 149.46 10.4725C149.846 10.6167 150.2 10.8369 150.5 11.12L149.93 11.71C149.703 11.4798 149.432 11.2975 149.133 11.1738C148.834 11.0502 148.513 10.9877 148.19 10.99C147.516 11.0394 146.887 11.3441 146.431 11.8418C145.974 12.3395 145.725 12.9927 145.734 13.668C145.743 14.3432 146.009 14.9896 146.479 15.4751C146.948 15.9605 147.585 16.2484 148.26 16.28C148.81 16.2727 149.353 16.1465 149.85 15.91V13.91H148.38V13.25H150.6V16.39Z" fill="#313134"/>
<path d="M154.32 10.44H155.03L157.74 16.82H156.86L156.21 15.25H153.02L152.37 16.82H151.51L154.32 10.44ZM154.66 11.44L153.34 14.57H155.94L154.66 11.44Z" fill="#313134"/>
<path d="M163.11 11.76C162.921 11.5171 162.678 11.3213 162.4 11.1877C162.123 11.0542 161.818 10.9865 161.51 10.99C161.177 11.0029 160.849 11.0815 160.547 11.2213C160.244 11.3611 159.972 11.5594 159.746 11.8047C159.52 12.0501 159.345 12.3376 159.231 12.6509C159.117 12.9641 159.065 13.2969 159.08 13.63C159.057 13.9656 159.102 14.3023 159.213 14.6197C159.324 14.9371 159.499 15.2287 159.726 15.4765C159.954 15.7244 160.229 15.9235 160.536 16.0616C160.842 16.1997 161.174 16.274 161.51 16.28C161.867 16.2883 162.22 16.2119 162.542 16.0572C162.863 15.9025 163.144 15.6739 163.36 15.39L163.93 15.86C163.65 16.2312 163.282 16.5276 162.86 16.7229C162.438 16.9183 161.974 17.0066 161.51 16.98C160.622 16.98 159.769 16.6271 159.141 15.9988C158.513 15.3706 158.16 14.5185 158.16 13.63C158.16 12.7416 158.513 11.8895 159.141 11.2612C159.769 10.633 160.622 10.28 161.51 10.28C161.937 10.2612 162.362 10.3417 162.753 10.5152C163.143 10.6888 163.488 10.9506 163.76 11.28L163.11 11.76Z" fill="#313134"/>
<path d="M165.79 10.44H165.03V16.81H165.79V10.44Z" fill="#313134"/>
<path d="M167.06 13.63C167.064 12.9723 167.263 12.3304 167.631 11.7854C167.999 11.2405 168.521 10.8168 169.129 10.5678C169.738 10.3188 170.407 10.2557 171.052 10.3865C171.696 10.5172 172.288 10.8359 172.752 11.3024C173.215 11.7689 173.531 12.3623 173.657 13.0077C173.784 13.6531 173.717 14.3216 173.465 14.9289C173.212 15.5362 172.785 16.0551 172.238 16.4202C171.691 16.7852 171.048 16.98 170.39 16.98C169.947 16.994 169.506 16.9168 169.095 16.7532C168.683 16.5895 168.309 16.3429 167.997 16.0287C167.685 15.7145 167.44 15.3394 167.279 14.9268C167.118 14.5141 167.043 14.0727 167.06 13.63M172.91 13.63C172.885 13.1379 172.715 12.6641 172.424 12.2672C172.132 11.8702 171.73 11.5675 171.268 11.3966C170.806 11.2256 170.303 11.1939 169.824 11.3053C169.344 11.4167 168.907 11.6664 168.567 12.0235C168.228 12.3805 168 12.8293 167.913 13.3142C167.826 13.7992 167.883 14.2991 168.077 14.752C168.271 15.205 168.593 15.5911 169.004 15.8627C169.416 16.1343 169.897 16.2794 170.39 16.28C170.733 16.2819 171.072 16.2137 171.387 16.0795C171.702 15.9453 171.987 15.748 172.223 15.4997C172.459 15.2515 172.642 14.9575 172.76 14.6359C172.878 14.3144 172.929 13.9721 172.91 13.63" fill="#313134"/>
<path d="M174.99 10.44H175.94L179.63 15.73H179.65V10.44H180.41V16.82H179.46L175.76 11.52H175.75V16.82H174.99V10.44Z" fill="#313134"/>
<path d="M182.04 10.44H186.04V11.14H182.79V13.14H185.83V13.85H182.79V16.11H186.21V16.82H182.04V10.44Z" fill="#313134"/>
<path d="M190.45 11.57C190.322 11.3824 190.149 11.2306 189.945 11.129C189.742 11.0275 189.517 10.9797 189.29 10.99C188.62 10.99 187.93 11.3 187.93 12.06C187.93 12.64 188.25 12.9 189.27 13.23C190.29 13.56 191.18 13.87 191.18 15.12C191.18 16.37 190.09 16.98 188.93 16.98C188.55 17.0098 188.168 16.945 187.819 16.7914C187.47 16.6379 187.165 16.4004 186.93 16.1L187.58 15.57C187.725 15.7969 187.927 15.9819 188.165 16.1064C188.404 16.231 188.671 16.2909 188.94 16.28C189.59 16.28 190.33 15.9 190.33 15.17C190.33 14.44 189.8 14.25 188.66 13.88C187.76 13.58 187.08 13.18 187.08 12.12C187.092 11.8532 187.159 11.5917 187.276 11.3519C187.394 11.1121 187.56 10.8992 187.763 10.7264C187.967 10.5537 188.204 10.4249 188.46 10.3481C188.716 10.2713 188.985 10.2481 189.25 10.28C189.584 10.2606 189.919 10.3182 190.227 10.4482C190.536 10.5782 190.81 10.7773 191.03 11.03L190.45 11.57Z" fill="#313134"/>
<path d="M195.03 10.44H199.04V11.14H195.79V13.14H198.82V13.85H195.79V16.11H199.2V16.82H195.03V10.44Z" fill="#313134"/>
<path d="M200.42 10.44H201.38L205.07 15.73H205.09V10.44H205.84V16.82H204.89L201.2 11.52H201.18V16.82H200.42V10.44Z" fill="#313134"/>
<path d="M115.16 21.57C115.035 21.3791 114.862 21.2243 114.658 21.1208C114.455 21.0173 114.228 20.9688 114 20.98C113.34 20.98 112.64 21.3 112.64 22.06C112.64 22.64 112.97 22.9 113.98 23.23C114.99 23.56 115.89 23.87 115.89 25.12C115.89 26.37 114.8 26.98 113.65 26.98C113.27 27.0107 112.888 26.9463 112.539 26.7927C112.19 26.6391 111.884 26.401 111.65 26.1L112.3 25.57C112.446 25.7955 112.648 25.9794 112.887 26.1038C113.125 26.2282 113.391 26.2889 113.66 26.28C114.3 26.28 115.04 25.9 115.04 25.17C115.04 24.44 114.51 24.25 113.38 23.87C112.48 23.58 111.79 23.18 111.79 22.12C111.802 21.8532 111.869 21.5917 111.986 21.3519C112.104 21.1121 112.27 20.8992 112.473 20.7264C112.677 20.5537 112.914 20.4249 113.17 20.3481C113.426 20.2713 113.695 20.2481 113.96 20.28C114.294 20.2591 114.629 20.3159 114.938 20.4461C115.247 20.5762 115.521 20.7761 115.74 21.03L115.16 21.57Z" fill="#C4291C"/>
<path d="M119.27 20.44H119.98L122.69 26.82H121.81L121.16 25.25H117.97L117.31 26.82H116.46L119.27 20.44ZM119.61 21.44L118.29 24.57H120.89L119.61 21.44Z" fill="#C4291C"/>
<path d="M123.59 20.44H124.35V26.11H127.26V26.82H123.59V20.44Z" fill="#C4291C"/>
<path d="M132.91 24.39C132.931 24.7189 132.885 25.0486 132.773 25.3588C132.662 25.669 132.489 25.9531 132.263 26.1935C132.038 26.434 131.765 26.6256 131.463 26.7566C131.161 26.8876 130.835 26.9552 130.505 26.9552C130.175 26.9552 129.849 26.8876 129.547 26.7566C129.245 26.6256 128.972 26.434 128.747 26.1935C128.521 25.9531 128.348 25.669 128.237 25.3588C128.125 25.0486 128.079 24.7189 128.1 24.39V20.39H128.86V24.23C128.86 25.23 129.24 26.23 130.51 26.23C131.78 26.23 132.15 25.23 132.15 24.23V20.44H132.91V24.39Z" fill="#C4291C"/>
<path d="M134.4 20.44H136.85C137.696 20.44 138.507 20.7761 139.106 21.3743C139.704 21.9726 140.04 22.784 140.04 23.63C140.04 24.476 139.704 25.2874 139.106 25.8857C138.507 26.4839 137.696 26.82 136.85 26.82H134.4V20.44ZM135.16 26.12H136.6C137.263 26.12 137.899 25.8566 138.368 25.3878C138.837 24.9189 139.1 24.283 139.1 23.62C139.1 22.957 138.837 22.3211 138.368 21.8522C137.899 21.3834 137.263 21.12 136.6 21.12H135.16V26.12Z" fill="#C4291C"/>
<path d="M143.8 20.44H145.69C146.86 20.44 147.92 20.86 147.92 22.19C147.92 23.52 146.74 23.95 145.83 23.95H144.6V26.82H143.84L143.8 20.44ZM144.6 23.25H145.87C146.63 23.25 147.15 22.91 147.15 22.25C147.15 21.59 146.63 21.2 145.87 21.2H144.6V23.25Z" fill="#C4291C"/>
<path d="M153.97 24.39C153.991 24.7189 153.945 25.0486 153.833 25.3588C153.722 25.669 153.549 25.9531 153.323 26.1935C153.098 26.4339 152.825 26.6256 152.523 26.7566C152.221 26.8876 151.895 26.9552 151.565 26.9552C151.235 26.9552 150.909 26.8876 150.607 26.7566C150.305 26.6256 150.032 26.4339 149.807 26.1935C149.581 25.9531 149.408 25.669 149.297 25.3588C149.185 25.0486 149.139 24.7189 149.16 24.39V20.39H149.92V24.23C149.92 25.23 150.3 26.23 151.57 26.23C152.84 26.23 153.22 25.23 153.22 24.23V20.44H153.97V24.39ZM151.88 18.7H152.88L151.6 19.99H150.96L151.88 18.7Z" fill="#C4291C"/>
<path d="M155.6 20.44H157.54C158.6 20.44 159.66 20.84 159.66 22.01C159.668 22.3424 159.561 22.6675 159.357 22.93C159.153 23.1925 158.864 23.3762 158.54 23.45V23.45C158.938 23.4831 159.308 23.6674 159.574 23.9651C159.84 24.2627 159.982 24.651 159.97 25.05C159.97 26.46 158.66 26.84 157.48 26.84H155.6V20.44ZM156.36 23.14H157.36C158.07 23.14 158.81 22.99 158.81 22.14C158.81 21.29 158.13 21.14 157.44 21.14H156.32L156.36 23.14ZM156.36 26.14H157.6C158.34 26.14 159.14 25.84 159.14 25.03C159.14 24.22 158.4 23.85 157.6 23.85H156.31L156.36 26.14Z" fill="#C4291C"/>
<path d="M161.31 20.44H162.06V26.11H164.98V26.82H161.31V20.44Z" fill="#C4291C"/>
<path d="M166.62 20.44H165.86V26.81H166.62V20.44Z" fill="#C4291C"/>
<path d="M172.72 21.76C172.532 21.5153 172.289 21.3175 172.012 21.1822C171.734 21.0468 171.429 20.9776 171.12 20.98C170.786 20.9941 170.459 21.0739 170.156 21.2148C169.853 21.3557 169.581 21.5549 169.355 21.801C169.13 22.0472 168.955 22.3354 168.841 22.6492C168.726 22.9631 168.675 23.2963 168.69 23.63C168.667 23.9655 168.712 24.3022 168.823 24.6196C168.934 24.9371 169.109 25.2286 169.336 25.4765C169.564 25.7244 169.839 25.9234 170.146 26.0615C170.452 26.1997 170.784 26.274 171.12 26.28C171.477 26.2882 171.83 26.2119 172.152 26.0572C172.473 25.9025 172.754 25.6738 172.97 25.39L173.54 25.86C173.26 26.2311 172.892 26.5275 172.47 26.7229C172.048 26.9182 171.584 27.0065 171.12 26.98C170.232 26.98 169.379 26.627 168.751 25.9988C168.123 25.3705 167.77 24.5185 167.77 23.63C167.77 22.7415 168.123 21.8894 168.751 21.2612C169.379 20.6329 170.232 20.28 171.12 20.28C171.548 20.2611 171.975 20.3416 172.367 20.515C172.759 20.6885 173.106 20.9503 173.38 21.28L172.72 21.76Z" fill="#C4291C"/>
<path d="M176.71 20.44H177.42L180.13 26.82H179.25L178.6 25.25H175.42L174.76 26.82H173.9L176.71 20.44ZM177.06 21.44L175.73 24.57H178.34L177.06 21.44Z" fill="#C4291C"/>
<path d="M104.5 0.450012H103.93V26.78H104.5V0.450012Z" fill="#313134"/>
</g>
<defs>
<clipPath id="clip0_1_303">
<rect width="205.84" height="27.18" fill="white"/>
</clipPath>
</defs>
</svg>
