<svg width="200" height="63" viewBox="0 0 300 63" fill="none" xmlns="http://www.w3.org/2000/svg">
<path d="M92.5365 44.4771H100.174V46.059H94.3592V50.6013H99.85V52.1804H94.3592V58.9522H92.5365V44.4771Z" fill="#1D2554"/>
<path d="M100.979 51.355C100.979 48.8818 102.057 47.7871 104.705 47.7871C108.078 47.7871 108.078 49.776 108.078 50.9108V56.972C108.078 57.4191 108.078 57.8317 108.617 57.8317C108.761 57.8463 108.907 57.8109 109.029 57.7314V58.9465C108.694 59.0065 108.355 59.04 108.015 59.0468C107.353 59.0468 106.524 59.0468 106.441 57.6483H106.401C106.128 58.1159 105.739 58.5052 105.272 58.7788C104.805 59.0523 104.275 59.2009 103.733 59.2102C101.664 59.2102 100.71 57.9951 100.71 56.0578C100.71 54.5361 101.372 53.4786 102.802 53.0573L105.14 52.3667C106.401 51.9826 106.401 51.6359 106.401 50.7245C106.401 49.7101 105.779 49.1226 104.622 49.1226C102.719 49.1226 102.719 50.8678 102.719 51.2519V51.355H100.979ZM106.338 53.0172C105.699 53.6878 104.166 53.8282 103.381 54.2953C102.808 54.6392 102.521 55.0662 102.521 56.0148C102.521 57.1095 102.914 57.8804 104.094 57.8804C105.275 57.8804 106.327 56.929 106.327 55.8142L106.338 53.0172Z" fill="#1D2554"/>
<path d="M115.712 51.3808C115.712 50.3291 115.277 49.1312 113.953 49.1312C112.878 49.1312 111.78 49.6585 111.78 53.6333C111.78 55.0519 111.8 57.889 113.892 57.889C115.383 57.889 115.712 56.3501 115.712 55.1723H117.452C117.452 56.8917 116.592 59.2274 113.809 59.2274C111.098 59.2274 109.961 57.3818 109.961 53.6534C109.961 50.9366 110.496 47.7928 113.912 47.7928C116.933 47.7928 117.452 50.1256 117.452 51.3808H115.712Z" fill="#1D2554"/>
<path d="M126.554 58.9437H124.9V57.6598H124.857C124.401 58.6542 123.244 59.2217 122.169 59.2217C119.251 59.2217 119.251 57.0523 119.251 55.7827V48.0766H120.988V55.5792C120.988 56.4103 121.051 57.7687 122.624 57.7687C122.915 57.7791 123.204 57.7296 123.475 57.6233C123.745 57.517 123.991 57.3561 124.197 57.1508C124.402 56.9454 124.564 56.6999 124.67 56.4295C124.777 56.1591 124.827 55.8697 124.817 55.5792V48.0766H126.554V58.9437Z" fill="#1D2554"/>
<path d="M128.935 44.4771H130.672V58.9522H128.935V44.4771Z" fill="#1D2554"/>
<path d="M133.569 44.9156H135.306V48.068H137.231V49.4063H135.306V56.3816C135.306 57.2414 135.535 57.5967 136.452 57.5967C136.708 57.5945 136.964 57.5744 137.217 57.5366V58.9351C136.753 59.0189 136.282 59.0592 135.81 59.0554C134.01 59.0554 133.575 58.3275 133.575 56.9089V49.4149H131.947V48.0766H133.56L133.569 44.9156Z" fill="#1D2554"/>
<path d="M138.143 51.355C138.143 48.8818 139.217 47.7871 141.868 47.7871C145.241 47.7871 145.241 49.776 145.241 50.9108V56.972C145.241 57.4191 145.241 57.8317 145.78 57.8317C145.925 57.8463 146.071 57.8109 146.193 57.7314V58.9465C145.858 59.0065 145.519 59.04 145.178 59.0468C144.516 59.0468 143.691 59.0468 143.608 57.6483H143.565C143.292 58.1159 142.903 58.5052 142.435 58.7788C141.968 59.0523 141.438 59.2009 140.897 59.2102C138.828 59.2102 137.876 57.9951 137.876 56.0578C137.876 54.5361 138.538 53.4786 139.965 53.0573L142.304 52.3667C143.565 51.9826 143.565 51.6359 143.565 50.7245C143.565 49.7101 142.946 49.1226 141.785 49.1226C139.882 49.1226 139.882 50.8678 139.882 51.2519V51.355H138.143ZM143.502 53.0172C142.86 53.6878 141.327 53.8282 140.541 54.2953C139.968 54.6392 139.682 55.0662 139.682 56.0148C139.682 57.1095 140.074 57.8804 141.255 57.8804C142.436 57.8804 143.49 56.929 143.49 55.8142L143.502 53.0172Z" fill="#1D2554"/>
<path d="M154.902 58.9436H153.245V57.6053H153.205C152.976 58.4163 152.005 59.2274 150.804 59.2274C148.176 59.2274 147.184 56.9347 147.184 53.4958C147.184 51.2261 147.557 47.7785 150.681 47.7785C151.19 47.7761 151.689 47.9178 152.121 48.187C152.553 48.4563 152.9 48.8422 153.122 49.3002H153.154V44.4771H154.893L154.902 58.9436ZM151.033 57.7687C152.956 57.7687 153.266 55.9833 153.266 53.5101C153.266 51.4037 152.893 49.2544 151.033 49.2544C149.42 49.2544 149.004 50.9165 149.004 53.5101C149.004 56.1036 149.428 57.7687 151.033 57.7687Z" fill="#1D2554"/>
<path d="M169.449 58.9436H167.792V57.6053H167.752C167.523 58.4163 166.551 59.2274 165.351 59.2274C162.723 59.2274 161.728 56.9347 161.728 53.4958C161.728 51.2261 162.101 47.7785 165.227 47.7785C165.736 47.7761 166.236 47.9178 166.668 48.187C167.1 48.4563 167.447 48.8422 167.669 49.3002H167.709V44.4771H169.449V58.9436ZM165.577 57.7687C167.503 57.7687 167.812 55.9833 167.812 53.5101C167.812 51.4037 167.44 49.2544 165.577 49.2544C163.964 49.2544 163.551 50.9165 163.551 53.5101C163.551 56.1036 163.964 57.7687 165.577 57.7687Z" fill="#1D2554"/>
<path d="M173.171 53.7136C173.171 55.3757 173.171 57.889 175.304 57.889C176.957 57.889 177.186 56.1868 177.186 55.3757H178.923C178.923 56.5221 178.221 59.2274 175.198 59.2274C172.486 59.2274 171.349 57.3818 171.349 53.6534C171.349 50.9366 171.888 47.7928 175.301 47.7928C178.714 47.7928 179.003 50.693 179.003 53.0229V53.7136H173.171ZM177.184 52.3752V51.7878C177.184 50.5727 176.791 49.1312 175.258 49.1312C173.438 49.1312 173.232 51.3206 173.232 51.9712V52.3752H177.184Z" fill="#1D2554"/>
<path d="M195.249 51.7075C195.249 55.3557 194.567 59.2274 190.489 59.2274C186.411 59.2274 185.732 55.3557 185.732 51.7075C185.732 48.0594 186.414 44.1848 190.489 44.1848C194.565 44.1848 195.249 48.0565 195.249 51.7075ZM187.635 51.7075C187.635 55.0519 187.965 57.7687 190.501 57.7687C193.037 57.7687 193.367 55.0519 193.367 51.7075C193.367 48.3631 193.034 45.6435 190.501 45.6435C187.967 45.6435 187.635 48.3603 187.635 51.7075V51.7075Z" fill="#1D2554"/>
<path d="M204.684 58.9436H203.019V57.6053H202.976C202.749 58.4163 201.778 59.2274 200.577 59.2274C197.949 59.2274 196.955 56.9347 196.955 53.4958C196.955 51.2261 197.327 47.7785 200.454 47.7785C200.963 47.7765 201.462 47.9182 201.894 48.1874C202.326 48.4567 202.673 48.8424 202.895 49.3002H202.936V44.4771H204.672L204.684 58.9436ZM200.815 57.7687C202.741 57.7687 203.05 55.9833 203.05 53.5101C203.05 51.4037 202.678 49.2544 200.815 49.2544C199.201 49.2544 198.789 50.9165 198.789 53.5101C198.789 56.1036 199.201 57.7687 200.815 57.7687Z" fill="#1D2554"/>
<path d="M210.415 47.7928C213.625 47.7928 214.41 50.4494 214.41 53.5101C214.41 56.5708 213.602 59.2417 210.415 59.2417C207.228 59.2417 206.423 56.5851 206.423 53.5101C206.423 50.4351 207.231 47.7928 210.415 47.7928ZM212.59 53.5101C212.59 51.1602 212.238 49.1312 210.375 49.1312C208.616 49.1312 208.243 51.1602 208.243 53.5101C208.243 55.8601 208.595 57.889 210.375 57.889C212.218 57.889 212.59 55.8629 212.59 53.5101V53.5101Z" fill="#1D2554"/>
<path d="M216.147 48.0766H217.803V49.349H217.843C218.299 48.3545 219.46 47.7871 220.534 47.7871C223.452 47.7871 223.452 49.9565 223.452 51.2261V58.9293H221.715V51.4439C221.715 50.6128 221.652 49.2544 220.079 49.2544C219.788 49.244 219.499 49.2935 219.228 49.3998C218.958 49.5061 218.712 49.667 218.506 49.8724C218.301 50.0777 218.14 50.3233 218.033 50.5936C217.926 50.864 217.876 51.1534 217.886 51.4439V58.9437H216.147V48.0766Z" fill="#1D2554"/>
<path d="M226.246 44.9156H227.983V48.068H229.908V49.4063H227.983V56.3816C227.983 57.2414 228.212 57.5967 229.129 57.5967C229.386 57.5946 229.643 57.5745 229.897 57.5366V58.9351C229.433 59.0189 228.962 59.0592 228.49 59.0554C226.687 59.0554 226.254 58.3275 226.254 56.9089V49.4149H224.641V48.0766H226.254L226.246 44.9156Z" fill="#1D2554"/>
<path d="M234.542 47.7928C237.749 47.7928 238.537 50.4494 238.537 53.5101C238.537 56.5708 237.729 59.2417 234.542 59.2417C231.356 59.2417 230.547 56.5851 230.547 53.5101C230.547 50.4351 231.356 47.7928 234.542 47.7928ZM236.715 53.5101C236.715 51.1602 236.362 49.1312 234.502 49.1312C232.743 49.1312 232.37 51.1602 232.37 53.5101C232.37 55.8601 232.723 57.889 234.502 57.889C236.342 57.889 236.715 55.8629 236.715 53.5101Z" fill="#1D2554"/>
<path d="M240.377 44.4771H242.114V58.9522H240.377V44.4771Z" fill="#1D2554"/>
<path d="M247.951 47.7928C251.158 47.7928 251.943 50.4494 251.943 53.5101C251.943 56.5708 251.135 59.2417 247.951 59.2417C244.768 59.2417 243.956 56.5851 243.956 53.5101C243.956 50.4351 244.765 47.7928 247.951 47.7928ZM250.124 53.5101C250.124 51.1602 249.771 49.1312 247.908 49.1312C246.149 49.1312 245.776 51.1602 245.776 53.5101C245.776 55.8601 246.129 57.889 247.908 57.889C249.751 57.889 250.124 55.8629 250.124 53.5101Z" fill="#1D2554"/>
<path d="M260.985 58.2558C260.985 61.4971 259.455 62.6749 257.219 62.6749C256.537 62.6749 253.866 62.6749 253.577 59.9581H255.317C255.4 60.9497 256.176 61.3366 257.096 61.3366C259.331 61.3366 259.248 59.6544 259.248 58.9035V57.485H259.205C258.833 58.3963 257.798 58.9436 256.704 58.9436C253.474 58.9436 253.265 54.9516 253.265 53.4986C253.265 50.5612 254.073 47.7814 256.884 47.7814C258.085 47.7814 259.059 48.5924 259.286 49.4464H259.329V48.0651H260.982L260.985 58.2558ZM255.087 53.5101C255.087 55.2754 255.357 57.485 257.093 57.485C258.976 57.485 259.349 55.7397 259.349 53.5101C259.349 51.4037 258.976 49.2544 257.113 49.2544C255.503 49.2544 255.087 50.9165 255.087 53.5101Z" fill="#1D2554"/>
<path d="M264.648 43.7005H266.676L264.441 46.5663H263.2L264.648 43.7005ZM263.364 48.0766H265.103V58.9437H263.364V48.0766Z" fill="#1D2554"/>
<path d="M267.212 51.355C267.212 48.8818 268.29 47.7871 270.938 47.7871C274.311 47.7871 274.311 49.776 274.311 50.9108V56.972C274.311 57.4191 274.311 57.8317 274.85 57.8317C274.995 57.8463 275.14 57.8109 275.262 57.7314V58.9465C274.927 59.0065 274.588 59.04 274.248 59.0468C273.586 59.0468 272.758 59.0468 272.675 57.6483H272.635C272.361 58.1159 271.972 58.5052 271.505 58.7788C271.038 59.0523 270.508 59.2009 269.966 59.2102C267.897 59.2102 266.943 57.9951 266.943 56.0578C266.943 54.5361 267.608 53.4786 269.035 53.0573L271.374 52.3667C272.635 51.9826 272.635 51.6359 272.635 50.7245C272.635 49.7101 272.013 49.1226 270.855 49.1226C268.952 49.1226 268.952 50.8678 268.952 51.2519V51.355H267.212ZM272.574 53.0172C271.932 53.6878 270.399 53.8282 269.614 54.2953C269.041 54.6392 268.754 55.0662 268.754 56.0148C268.754 57.1095 269.147 57.8804 270.328 57.8804C271.474 57.8804 272.563 56.929 272.563 55.8142L272.574 53.0172Z" fill="#1D2554"/>
<path d="M109.665 20.1322C109.665 26.8697 108.404 34.017 100.882 34.017C93.359 34.017 92.1124 26.8697 92.1124 20.1322C92.1124 13.3947 93.3705 6.25031 100.896 6.25031C108.422 6.25031 109.665 13.3976 109.665 20.1322ZM95.623 20.1322C95.623 26.308 96.2334 31.3231 100.893 31.3231C105.553 31.3231 106.155 26.308 106.155 20.1322C106.155 13.9564 105.544 8.95562 100.885 8.95562C96.2248 8.95562 95.6115 13.9593 95.6115 20.1322H95.623Z" fill="#EF4230"/>
<path d="M114.056 6.77185H121.343C129.823 6.77185 130.892 12.7614 130.892 20.1322C130.892 26.8697 129.173 33.4925 121.687 33.4925H114.056V6.77185ZM117.417 30.7987H120.931C126.737 30.7987 127.385 24.961 127.385 20.1694C127.385 15.011 127.041 9.46856 120.931 9.46856H117.417V30.7987Z" fill="#EF4230"/>
<path d="M152.131 20.1322C152.131 26.8697 150.873 34.017 143.347 34.017C135.821 34.017 134.563 26.8697 134.563 20.1322C134.563 13.3947 135.824 6.25031 143.347 6.25031C150.87 6.25031 152.131 13.3976 152.131 20.1322ZM138.088 20.1322C138.088 26.308 138.699 31.3231 143.359 31.3231C148.018 31.3231 148.629 26.308 148.629 20.1322C148.629 13.9564 148.018 8.95562 143.359 8.95562C138.699 8.95562 138.077 13.9593 138.077 20.1322H138.088Z" fill="#EF4230"/>
<path d="M156.177 6.77185H160.533L169.546 29.0763H169.623V6.77185H172.982V33.4925H168.363L159.616 11.8615H159.539V33.4925H156.177V6.77185Z" fill="#EF4230"/>
<path d="M185.698 33.4925H182.339V9.6921H175.507V6.77185H192.579V9.6921H185.701L185.698 33.4925Z" fill="#EF4230"/>
<path d="M212.281 20.1322C212.281 26.8697 211.02 34.017 203.494 34.017C195.969 34.017 194.708 26.8697 194.708 20.1322C194.708 13.3947 195.969 6.25031 203.491 6.25031C211.014 6.25031 212.281 13.3976 212.281 20.1322ZM198.238 20.1322C198.238 26.308 198.852 31.3231 203.509 31.3231C208.166 31.3231 208.782 26.308 208.782 20.1322C208.782 13.9564 208.168 8.95562 203.509 8.95562C198.849 8.95562 198.224 13.9593 198.224 20.1322H198.238Z" fill="#EF4230"/>
<path d="M216.327 6.77185H219.686V30.5751H230.762V33.4925H216.327V6.77185Z" fill="#EF4230"/>
<path d="M250.468 20.1322C250.468 26.8697 249.21 34.017 241.684 34.017C234.158 34.017 232.9 26.8697 232.9 20.1322C232.9 13.3947 234.161 6.25031 241.684 6.25031C249.207 6.25031 250.468 13.3976 250.468 20.1322ZM236.425 20.1322C236.425 26.308 237.036 31.3231 241.695 31.3231C246.355 31.3231 246.966 26.308 246.966 20.1322C246.966 13.9564 246.355 8.95562 241.695 8.95562C237.036 8.95562 236.414 13.9593 236.414 20.1322H236.425Z" fill="#EF4230"/>
<path d="M267.462 14.1828C267.31 11.3772 266.241 8.94415 262.917 8.94415C258.26 8.94415 257.646 13.9593 257.646 20.1207C257.646 26.2822 258.26 31.3117 262.917 31.3117C267.574 31.3117 267.92 25.8466 267.92 22.293H262.535V19.5963H270.978V33.4811H268.456V29.8616H268.379C267.974 31.0931 267.184 32.1617 266.125 32.9095C265.066 33.6573 263.794 34.0445 262.498 34.0141C255.394 34.0141 254.133 27.3168 254.133 20.1293C254.133 13.3947 255.394 6.24744 262.917 6.24744C270.746 6.24744 270.941 12.7958 270.978 14.18L267.462 14.1828Z" fill="#EF4230"/>
<path d="M277.466 0H281.209L277.085 5.31318H274.792L277.466 0ZM275.022 6.77187H278.389V33.4925H275.027L275.022 6.77187Z" fill="#EF4230"/>
<path d="M288.158 6.77185H292.666L300 33.4925H296.487L294.538 26.1589H285.84L283.814 33.4925H280.301L288.158 6.77185ZM286.516 23.4651H293.864L290.388 10.5518H290.314L286.516 23.4651Z" fill="#EF4230"/>
<path d="M7.32498 30.194C7.32498 30.9185 7.1101 31.6268 6.70753 32.2291C6.30496 32.8315 5.7328 33.3009 5.0634 33.578C4.394 33.8551 3.65745 33.9275 2.94692 33.7859C2.23639 33.6444 1.5838 33.2953 1.07171 32.7828C0.559613 32.2703 0.21102 31.6174 0.0700256 30.9068C-0.0709684 30.1962 0.00197226 29.4597 0.279617 28.7905C0.557261 28.1213 1.02714 27.5495 1.62981 27.1474C2.23248 26.7453 2.94086 26.531 3.66535 26.5316C4.14618 26.5316 4.6223 26.6263 5.06649 26.8104C5.51069 26.9945 5.91424 27.2643 6.25411 27.6044C6.59397 27.9446 6.86348 28.3483 7.04722 28.7927C7.23097 29.237 7.32535 29.7132 7.32498 30.194V30.194Z" fill="#1D2554"/>
<path d="M32.2975 23.3476C32.2975 30.5837 27.9358 34.1087 20.628 34.1087C13.3202 34.1087 9.00433 30.621 9.00433 23.3476V6.7002H15.0225V23.3476C15.0225 26.2707 15.7877 29.1594 20.6481 29.1594C24.9324 29.1594 26.3109 27.3225 26.3109 23.3476V6.7002H32.329L32.2975 23.3476Z" fill="#1D2554"/>
<path d="M36.9659 6.7002H49.8218C55.0261 6.7002 58.5453 8.35089 58.5453 13.3374C58.5453 15.9624 57.207 17.7994 54.8198 18.9228C58.1498 19.8599 59.832 22.3618 59.832 25.709C59.832 31.154 55.1264 33.4696 50.1915 33.4696H36.9515L36.9659 6.7002ZM42.984 17.5358H49.0681C51.1745 17.5358 52.7421 16.5987 52.7421 14.349C52.7421 11.7984 50.7532 11.274 48.6096 11.274H42.9726L42.984 17.5358ZM42.984 28.8958H49.412C51.782 28.8958 53.8483 28.1478 53.8483 25.3708C53.8483 22.6369 52.0887 21.5479 49.5267 21.5479H42.9726L42.984 28.8958Z" fill="#1D2554"/>
<path d="M70.8683 6.7002H77.0297L87.2405 33.4696H81.0074L78.9297 27.5087H68.7247L66.5839 33.4696H60.4998L70.8683 6.7002ZM70.2951 23.1212H77.3736L73.9347 13.3001H73.8601L70.2951 23.1212Z" fill="#1D2554"/>
</svg>
